<svg version="1.1" id="Layer_1" xmlns="http://www.w3.org/2000/svg" xmlns:xlink="http://www.w3.org/1999/xlink" x="0px" y="0px"
	 width="100%" viewBox="0 0 500 500" enable-background="new 0 0 500 500" xml:space="preserve">
<path fill="#010100" opacity="1.000000" stroke="none" 
	d="
M329.000000,501.000000 
	C219.333359,501.000000 110.166718,501.000000 1.000059,501.000000 
	C1.000039,334.333405 1.000039,167.666794 1.000020,1.000148 
	C167.666565,1.000099 334.333130,1.000099 500.999756,1.000049 
	C500.999847,167.666519 500.999847,334.333038 500.999939,500.999786 
	C443.833344,501.000000 386.666656,501.000000 329.000000,501.000000 
M425.905640,378.654480 
	C426.150177,378.596039 426.394745,378.537598 426.639313,378.479187 
	C426.665771,378.614563 426.692230,378.749908 426.718658,378.885284 
	C426.480469,378.923431 426.242249,378.961578 426.288635,379.715973 
	C425.868164,379.842743 425.447723,379.969543 424.305481,380.898499 
	C423.668762,380.626740 423.032043,380.354980 422.395325,380.083221 
	C423.361816,378.984222 424.328278,377.885254 425.156647,376.999542 
	C425.156647,376.999542 425.112732,376.812622 425.112732,376.812622 
	C425.112732,376.812622 425.207214,376.911743 424.567139,377.445343 
	C422.708740,377.018799 420.850342,376.592255 418.907928,375.461182 
	C417.848358,373.860870 416.788757,372.260590 415.330353,370.068329 
	C411.033234,366.404327 405.525482,367.334900 402.995148,372.053192 
	C402.182159,373.569061 401.026398,374.901093 399.966553,375.567596 
	C399.021790,374.040497 398.076996,372.513367 396.791992,370.384338 
	C392.523041,366.146027 386.045135,367.344025 384.021820,372.746002 
	C381.534180,379.387726 378.209381,380.107330 372.703613,374.401306 
	C373.579437,372.641449 374.494171,370.899750 375.324646,369.118774 
	C379.938599,359.223846 384.761261,349.413818 388.917053,339.329346 
	C389.647552,337.556702 387.555298,334.620850 386.191010,331.813904 
	C382.502899,325.763947 377.456299,325.295837 372.922852,330.853973 
	C371.070770,333.124695 369.850769,335.910980 367.584900,338.216370 
	C366.312012,336.218231 365.039154,334.220123 363.190796,331.813660 
	C359.496613,325.754547 354.422211,325.295135 349.896179,330.891266 
	C348.049286,333.174835 346.171509,335.826660 345.500793,338.599487 
	C342.745453,349.990723 340.449158,361.492981 337.255951,373.038849 
	C335.304932,370.890045 333.658875,367.587311 330.110260,369.162720 
	C328.273163,369.978302 326.246521,372.008209 325.730347,373.881958 
	C323.091858,383.460693 317.296051,391.043274 311.024323,398.339691 
	C299.588654,411.643738 280.323914,407.503571 275.574493,391.578735 
	C270.256653,367.413574 275.007690,345.367218 290.016754,325.752716 
	C295.402435,318.714447 302.061340,313.274414 312.715973,316.118866 
	C314.362518,318.328400 316.009064,320.537964 317.655609,322.747528 
	C318.316162,322.321777 318.976715,321.896027 319.637299,321.470276 
	C319.420898,320.117279 319.539642,318.586853 318.932678,317.440704 
	C315.500153,310.958954 307.783020,307.196747 300.794128,309.669525 
	C295.792999,311.439026 290.525330,314.087280 286.896820,317.820862 
	C271.486542,333.677429 265.687958,353.302887 265.617676,375.556824 
	C264.535675,374.380463 263.386017,373.258759 262.384033,372.017792 
	C259.011505,367.840942 256.724274,367.631195 252.642487,371.154785 
	C252.073685,371.645752 251.351181,371.958618 250.445908,372.508057 
	C248.583160,368.574188 246.486633,365.386932 241.443207,369.218231 
	C240.594498,369.151001 239.745773,369.083801 238.496368,368.493195 
	C232.460907,366.787384 231.308731,368.089233 232.172043,374.837738 
	C230.836182,373.865051 229.500320,372.892365 227.700989,371.412445 
	C225.886276,370.160126 224.182343,368.059814 222.237228,367.805725 
	C214.750031,366.827637 214.020462,373.515533 212.101669,378.908478 
	C209.279388,375.927521 206.601959,374.010834 205.177750,371.408295 
	C202.076889,365.742004 200.163544,368.392334 197.795288,371.233154 
	C194.424149,367.016418 191.177872,369.523071 187.997971,371.724152 
	C186.854263,370.524567 185.904816,369.528748 184.573074,368.131927 
	C184.031708,369.708801 183.677429,370.740723 182.805603,371.577240 
	C181.568054,370.707123 180.330505,369.836975 178.770355,368.250366 
	C176.796829,368.822693 174.823303,369.395050 172.228439,369.957550 
	C171.611221,369.984314 170.994003,370.011078 170.021896,369.425140 
	C168.214783,369.002167 166.407669,368.579224 164.600555,368.156250 
	C164.321457,369.718018 163.963516,371.271210 163.791504,372.844666 
	C163.680420,373.860870 163.841736,374.906860 163.975327,375.884216 
	C163.975327,375.884216 163.924683,375.787354 163.272385,375.596924 
	C162.847626,375.750916 162.422867,375.904877 161.862762,375.370392 
	C160.690903,373.842255 159.519058,372.314087 158.109680,370.132690 
	C153.225372,365.872101 146.785660,367.728821 145.217484,373.849182 
	C144.813919,375.424194 144.406738,376.998260 143.118988,378.690948 
	C141.802032,377.061096 140.533630,374.114410 139.158463,374.063721 
	C135.856140,373.942017 135.609650,362.220306 130.119873,371.625122 
	C129.911102,371.982788 128.889709,371.905090 128.241043,371.960724 
	C123.808632,372.340485 119.374626,372.701630 114.656883,372.154724 
	C114.692207,361.533203 115.329651,350.865204 114.514130,340.309418 
	C114.093262,334.861938 115.866882,333.755249 120.430847,332.652435 
	C131.170425,330.057281 141.749313,326.797089 153.910599,323.379547 
	C151.295197,321.683777 149.972183,320.825989 148.910965,319.185974 
	C147.430801,319.037567 145.840195,318.460571 144.488037,318.808960 
	C134.210678,321.457062 124.009941,324.408661 113.703590,326.931854 
	C112.084892,327.328156 109.109673,326.625610 108.364311,325.431122 
	C103.270874,317.268585 89.693626,320.657898 84.646271,326.548981 
	C82.611595,328.923798 82.845215,330.683594 85.471352,332.702026 
	C90.230034,336.359467 95.484108,335.903992 100.708641,334.943787 
	C104.875145,334.178070 106.662720,335.390808 106.568504,339.632324 
	C106.347122,349.598053 106.005211,359.568665 106.146629,369.531128 
	C106.203033,373.504883 104.923294,375.037598 101.044960,375.565643 
	C97.223938,376.085876 93.518921,377.458130 89.763008,378.456573 
	C89.866234,378.931519 89.969460,379.406464 90.072678,379.881439 
	C90.696075,379.951202 91.319466,380.020996 92.013000,380.814240 
	C93.671196,383.474762 95.819626,384.252472 98.892052,383.128418 
	C100.837547,382.416626 103.019180,382.350281 105.175102,382.888123 
	C104.345551,392.044464 103.458443,401.196381 102.750641,410.362122 
	C102.648537,411.684357 103.408585,413.073181 103.966782,415.071228 
	C105.306427,416.096283 106.646065,417.121368 108.660103,418.662476 
	C109.204147,416.312866 109.655167,414.939209 109.826691,413.531525 
	C110.986160,404.016266 112.148949,394.500549 113.172501,384.970123 
	C113.536819,381.577850 114.596748,379.666443 118.556526,379.505554 
	C124.153717,379.278137 129.719879,378.287170 135.581512,378.408112 
	C135.225479,382.475525 135.684479,385.965729 141.116333,386.721069 
	C143.613510,389.644165 144.047287,389.479034 149.916763,383.184326 
	C154.636475,388.335419 159.885361,384.789520 165.558167,384.162689 
	C166.013412,384.463287 166.468658,384.763916 167.190460,385.668976 
	C170.156006,388.674896 173.167786,388.878448 175.872345,385.723633 
	C178.757034,386.969666 181.301163,388.068604 183.804932,390.063385 
	C184.204498,393.688690 184.604050,397.313995 185.317581,401.521088 
	C186.460266,402.541016 187.602966,403.560913 189.358444,405.127777 
	C190.329788,397.234161 191.179825,390.326508 192.065842,383.126343 
	C198.874329,386.724915 200.309372,386.150391 202.575439,379.788147 
	C202.814392,379.117279 203.502228,378.606293 203.981659,378.855499 
	C204.831314,381.175171 205.077911,384.613953 206.705078,385.490723 
	C208.244019,386.320038 211.196732,384.141418 213.593719,383.870605 
	C215.992310,383.599670 218.472687,384.052795 221.196945,384.885742 
	C225.553253,387.820404 229.323135,384.756897 233.744873,383.885956 
	C234.026901,384.065704 234.334641,384.168671 235.000336,384.761353 
	C238.093613,387.853607 241.306717,388.882477 244.534210,385.191284 
	C251.279221,388.899536 251.902863,388.681549 254.075943,381.859070 
	C258.512543,385.083710 262.724121,386.366028 265.667694,380.090912 
	C265.749817,379.915833 266.521454,380.064240 266.945129,380.873566 
	C267.961517,384.502777 268.634186,388.274048 270.063690,391.732483 
	C273.349182,399.681091 278.460083,406.082825 286.970825,410.004852 
	C294.903656,414.842407 306.161255,413.232819 313.850403,405.332642 
	C320.039429,398.973785 325.477356,391.883881 331.407104,384.932434 
	C332.984589,385.225800 335.399017,385.674774 337.879883,386.985352 
	C338.602814,395.014923 339.819122,402.834015 347.191345,408.771851 
	C349.523895,409.633148 352.628479,411.830597 354.004089,411.035797 
	C355.960815,409.905151 357.515930,406.632690 357.676697,404.172943 
	C357.930267,400.292664 357.160034,396.265594 356.302582,392.416626 
	C355.553467,389.053955 354.086273,385.851227 353.526520,383.069366 
	C355.921600,383.779602 358.316681,384.489838 360.818604,386.062439 
	C361.485168,394.394043 362.525604,402.571716 370.192749,408.761230 
	C372.512085,409.622284 375.582458,411.810272 376.969940,411.024994 
	C378.919373,409.921600 380.747437,406.550323 380.626190,404.254700 
	C380.344208,398.916901 378.921204,393.630859 377.842102,388.348022 
	C377.420868,386.285797 376.681732,384.288483 376.730804,382.445038 
	C377.175812,382.432678 377.620850,382.420319 377.919647,383.076263 
	C378.566498,383.611816 379.213348,384.147369 380.634979,384.899994 
	C382.763275,383.883667 384.891602,382.867371 387.566376,381.932404 
	C387.750305,381.941833 387.934204,381.951233 388.496246,382.496674 
	C392.272583,385.293182 396.149750,385.119934 399.995758,382.735779 
	C402.786346,381.005920 405.090973,380.951324 408.125610,382.842896 
	C410.166534,384.115082 413.450745,384.201569 415.960663,383.708496 
	C419.122894,383.087280 422.062866,381.334656 424.735962,379.355347 
	C425.165344,379.243958 425.594727,379.132568 425.905640,378.654480 
M242.284348,445.309753 
	C242.284348,445.309753 242.692947,445.345795 243.225372,445.847443 
	C244.653534,446.973694 246.081680,448.099915 247.515549,449.230682 
	C250.109100,445.388397 249.616379,437.896362 246.058380,433.800568 
	C245.795334,436.775635 245.766541,439.225037 245.289352,441.583740 
	C245.057755,442.728668 243.986526,443.703674 243.270020,444.326813 
	C243.270020,444.326813 242.987854,444.002991 242.969131,443.160065 
	C242.549271,440.236176 242.129410,437.312317 241.709534,434.388428 
	C241.214035,434.472626 240.718521,434.556824 240.223022,434.641022 
	C239.560120,438.272125 237.682175,442.070068 242.284348,445.309753 
M299.329712,434.179291 
	C294.531952,434.587402 293.350494,438.741028 294.568817,441.558136 
	C295.817963,444.446503 299.648010,446.246002 302.466980,448.364380 
	C302.647827,448.500305 304.483185,447.267456 304.472076,446.692230 
	C304.393402,442.626556 304.383850,438.497437 303.605469,434.535278 
	C303.248657,432.718964 301.313141,431.982361 300.303528,434.782501 
	C299.998108,434.674896 299.724335,434.728577 299.329712,434.179291 
M132.491486,248.543076 
	C131.983063,251.996948 131.474655,255.450821 130.256195,259.024872 
	C125.485771,260.988068 120.986244,263.450165 120.958099,269.381927 
	C120.930389,275.225983 125.791245,277.189850 130.082138,279.399048 
	C130.963089,279.852631 131.862610,280.323486 132.808975,280.588562 
	C143.010529,283.445770 153.156647,286.539948 163.451004,289.016083 
	C174.305054,291.626862 185.303497,293.637299 195.597244,296.698883 
	C190.866684,296.363739 186.136124,296.028625 181.405548,295.693481 
	C199.106354,303.301117 262.912750,305.025452 274.943634,298.929779 
	C271.585541,298.929779 268.781403,298.974060 265.979065,298.922638 
	C245.746750,298.551331 225.512939,298.231171 205.284683,297.700439 
	C202.240021,297.620575 199.221893,296.528473 196.912140,295.282104 
	C208.516220,295.887024 220.140656,297.247955 231.720032,296.936005 
	C254.277161,296.328217 276.885162,295.206055 298.910217,289.685577 
	C312.242065,286.344025 325.454041,282.461945 338.560150,278.317688 
	C342.869049,276.955200 346.770264,273.736267 346.325806,268.449524 
	C345.905121,263.445679 342.144897,260.465790 337.659698,259.149170 
	C329.711517,256.816040 321.674194,254.672684 313.549103,253.093430 
	C307.395325,251.897354 301.047058,251.702057 295.180786,250.448898 
	C303.134155,244.537460 311.373108,238.961212 318.898956,232.548050 
	C321.870392,230.015915 323.893921,225.844666 325.235657,222.028336 
	C328.848877,211.751038 322.937469,201.165588 312.716156,198.668854 
	C307.305664,197.347229 304.217255,198.823013 301.915100,203.984131 
	C300.742493,206.612976 299.752441,209.323273 298.679901,211.996750 
	C298.509827,208.339096 299.246368,204.993958 300.154572,201.696060 
	C301.180450,197.970703 300.604065,195.034912 295.576447,193.562714 
	C298.951019,192.163589 301.556030,191.425278 303.769012,190.054199 
	C305.436401,189.021149 307.722412,187.165909 307.707367,185.697418 
	C307.688446,183.849823 305.813232,181.827408 304.337524,180.257889 
	C303.382355,179.241974 301.748047,178.795944 300.350739,178.275101 
	C287.517975,173.491776 274.143005,172.146194 260.601807,172.675598 
	C258.324982,172.764618 256.142761,175.274277 253.916840,176.665466 
	C254.176834,177.467453 254.436813,178.269440 254.696793,179.071442 
	C264.989471,179.364594 275.285095,179.584045 285.573273,179.991333 
	C289.122711,180.131836 292.653656,180.740036 296.193054,181.134598 
	C296.161713,181.664963 296.130371,182.195328 296.099060,182.725693 
	C290.455292,186.896347 283.768768,188.819092 277.024078,188.883743 
	C250.240967,189.140579 223.449707,189.040848 196.668701,188.616928 
	C191.132797,188.529312 185.591003,186.635162 180.125977,185.275925 
	C177.810272,184.699966 175.887161,183.249969 176.574387,180.938019 
	C179.573441,181.446060 181.829468,182.317093 183.979752,182.106796 
	C192.715866,181.252426 201.409927,179.976501 210.139160,179.039307 
	C214.670090,178.552872 219.242111,178.449112 223.497665,178.190552 
	C224.088486,172.224442 221.750397,171.010651 216.978638,171.874237 
	C212.251724,172.729706 207.351105,172.571899 202.570801,173.196350 
	C191.054153,174.700745 179.453430,175.872375 168.103455,178.224548 
	C161.337448,179.626755 161.014618,183.868408 165.388779,189.180969 
	C169.342087,193.982376 173.137634,199.152557 175.790405,204.736099 
	C181.275635,216.281387 185.954391,228.209824 190.159103,240.023941 
	C184.984772,241.700455 179.622055,242.963913 174.705627,245.205978 
	C171.679626,246.585968 169.865616,246.940201 167.471237,244.300995 
	C165.497147,242.125061 162.855484,240.525726 160.405716,238.820160 
	C158.640747,237.591354 156.761627,236.493484 154.833801,235.538315 
	C150.402313,233.342697 146.780930,233.024765 142.256714,236.860352 
	C138.349503,240.172867 133.515198,242.065079 132.491486,248.543076 
M277.273865,158.774521 
	C276.800598,159.363525 276.327332,159.952530 275.854034,160.541519 
	C276.018524,160.944931 276.183014,161.348343 276.347504,161.751755 
	C294.136078,156.974991 311.924683,152.198212 329.713257,147.421432 
	C329.816223,147.702087 329.919189,147.982758 330.022156,148.263428 
	C325.798157,150.027664 321.574158,151.791901 317.350159,153.556137 
	C321.918549,154.044586 326.380859,153.668335 330.802368,153.015823 
	C342.510468,151.288010 353.970947,148.690720 364.527740,143.023834 
	C373.120880,138.411057 378.982239,131.317764 382.619568,122.476349 
	C389.321289,106.186394 377.897369,92.630722 359.458099,94.944199 
	C359.814728,95.553650 360.044525,96.211784 360.486176,96.662117 
	C370.447021,106.818459 366.635712,118.058960 360.476685,126.471107 
	C353.374359,136.171677 343.576447,142.272339 332.771576,146.979980 
	C332.346008,147.165390 331.707489,146.862152 329.729492,146.585068 
	C333.431610,144.552429 336.007385,143.227097 338.496643,141.755508 
	C347.419067,136.480804 355.137451,129.976852 358.447021,119.736496 
	C360.469696,113.478104 361.947327,106.986984 357.653198,100.710564 
	C355.713989,104.095161 353.961884,107.153175 351.760803,109.834358 
	C351.599091,109.724709 351.437347,109.615059 351.399994,108.777458 
	C353.102417,103.586029 355.536194,98.504799 356.338867,93.177803 
	C357.597290,84.826248 349.658905,75.975784 342.303894,76.512871 
	C348.825500,85.357964 347.792267,99.930954 339.053497,106.680725 
	C332.301392,111.895988 324.807678,116.874855 316.838348,119.626091 
	C303.862946,124.105591 290.237701,126.711128 276.872406,130.050491 
	C263.106018,133.490067 249.461227,137.375565 238.060974,146.261642 
	C228.484344,153.726242 225.212173,164.199951 226.076385,175.964966 
	C226.522614,182.039673 230.220978,185.351028 235.778320,185.624359 
	C235.724045,185.136429 235.806793,184.595764 235.600235,184.210052 
	C229.105988,172.083527 237.984116,152.136765 251.981186,147.886307 
	C261.327393,145.048172 270.909821,142.776627 280.535400,141.112686 
	C302.143982,137.377289 323.332397,132.756088 341.419617,119.287018 
	C342.672089,118.354324 344.207916,117.802132 345.611969,117.072998 
	C345.707397,119.066040 345.311127,120.734741 344.275208,121.752098 
	C340.268463,125.687042 336.576599,130.325302 331.818390,133.035187 
	C320.868988,139.271118 309.451630,144.717911 298.037537,150.088211 
	C293.963440,152.005066 289.351166,152.778000 284.558685,153.361938 
	C297.435455,147.741119 310.312225,142.120300 323.188995,136.499481 
	C322.998260,136.077072 322.807526,135.654663 322.616791,135.232239 
	C312.380829,138.386322 302.090027,141.374893 291.925568,144.744644 
	C283.132385,147.659805 274.224152,150.447678 265.840210,154.317490 
	C256.952759,158.419724 250.222321,165.106171 248.602524,175.406799 
	C248.287491,177.410141 249.233093,179.611755 249.597229,181.721909 
	C250.077484,181.672470 250.557724,181.623016 251.037964,181.573563 
	C250.409775,175.420731 252.917496,170.928696 258.048767,167.821503 
	C263.573395,164.476135 269.064026,161.072113 274.657257,157.845825 
	C275.365784,157.437149 276.605682,157.949661 277.273865,158.774521 
M345.785278,441.726013 
	C345.888550,440.681976 345.600861,439.220825 346.176788,438.681091 
	C347.365173,437.567169 349.014160,436.944611 350.688385,435.998596 
	C345.821442,432.228790 344.857300,432.150848 342.976379,434.281281 
	C340.265137,437.352356 339.971069,442.475281 342.527771,444.746460 
	C345.101593,447.032898 347.300140,446.370850 349.132172,443.437561 
	C348.171478,442.995544 347.284912,442.587646 345.785278,441.726013 
M282.504395,428.001312 
	C281.718597,428.064514 280.932831,428.127716 281.108612,428.113586 
	C281.108612,434.968140 281.108612,441.484528 281.108612,449.152100 
	C286.610352,445.989105 284.821503,442.095123 284.946442,438.861389 
	C285.083740,435.308960 284.977753,431.747131 284.977753,428.045013 
	C284.675079,428.029785 284.033722,427.997467 282.504395,428.001312 
M166.270813,436.702484 
	C166.283035,438.937653 165.703018,441.394318 166.437759,443.359314 
	C167.740845,446.844360 170.943344,446.728577 173.180420,443.148529 
	C165.076004,441.081909 173.189789,436.417908 171.038269,432.027557 
	C169.384476,433.558868 168.034653,434.808716 166.270813,436.702484 
M149.043243,439.346313 
	C149.043243,441.513885 149.043243,443.681427 149.043243,447.096527 
	C155.704758,441.722015 151.565781,435.483215 153.154358,430.473419 
	C153.306976,429.992157 150.856323,428.685364 149.042618,427.336884 
	C149.042618,431.761200 149.042618,435.078400 149.043243,439.346313 
M204.528519,445.186981 
	C207.259140,446.682678 209.171539,446.253723 210.033524,442.944183 
	C204.519211,442.344238 203.757309,438.821655 207.648453,433.049438 
	C205.890594,433.438751 203.859894,434.041962 203.071274,435.378204 
	C201.224350,438.507690 200.729248,441.915039 204.528519,445.186981 
M229.074768,445.662231 
	C233.331161,445.541412 234.067093,444.421448 232.144913,441.004852 
	C231.932449,440.627197 231.720520,440.234528 231.600983,439.821960 
	C231.201630,438.443512 230.844360,437.052887 230.470963,435.666931 
	C229.033020,436.973511 226.682892,438.110657 226.400406,439.631805 
	C226.085373,441.328339 227.649384,443.373840 229.074768,445.662231 
M330.016174,438.880127 
	C330.215851,435.324219 331.031616,431.607758 327.651550,428.170410 
	C324.725647,440.802277 325.183197,444.472595 330.016022,447.800201 
	C330.016022,445.011566 330.016022,442.391327 330.016174,438.880127 
M182.996338,443.583679 
	C183.365189,444.902863 183.734055,446.222046 184.279205,448.171753 
	C187.793945,441.725311 186.477631,431.960022 181.922775,430.225494 
	C182.263702,434.537445 182.586548,438.620605 182.996338,443.583679 
M257.815155,439.733215 
	C257.645264,441.064941 257.475372,442.396667 257.159943,444.869385 
	C258.460754,444.612762 260.281036,444.253632 262.101318,443.894501 
	C261.472046,441.985809 260.888214,440.060516 260.197266,438.174377 
	C259.746185,436.942993 259.139740,435.768494 258.431488,434.185394 
	C254.730362,434.563629 254.505432,435.134430 257.815155,439.733215 
M318.492737,441.565643 
	C316.902069,439.236481 315.311401,436.907318 313.540436,434.314178 
	C309.924408,435.392944 309.948120,435.986877 314.828064,441.412689 
	C313.905945,442.183044 313.030121,442.914734 312.014038,443.763550 
	C315.065704,446.033081 317.308105,446.252319 318.492737,441.565643 
M193.610062,433.071808 
	C191.025162,438.935181 191.393005,442.779541 196.125000,446.074280 
	C195.034210,440.827515 194.182098,436.728851 193.610062,433.071808 
M216.764877,441.000824 
	C217.324875,442.507507 217.884872,444.014221 218.444855,445.520905 
	C219.037262,445.318329 219.629669,445.115784 220.222092,444.913208 
	C219.761047,441.498505 219.300003,438.083801 218.838959,434.669128 
	C218.231461,434.741272 217.623962,434.813446 217.016464,434.885590 
	C216.932541,436.667786 216.848618,438.449982 216.764877,441.000824 
M156.072220,434.426239 
	C156.896027,434.728882 157.719833,435.031555 159.280960,435.605103 
	C158.220352,432.962372 157.990326,430.287354 156.072220,434.426239 
M156.329010,438.966278 
	C156.666519,439.552979 157.004028,440.139648 157.341537,440.726349 
	C157.728638,440.354248 158.115738,439.982147 158.502838,439.610016 
	C157.913437,439.249176 157.324036,438.888336 156.329010,438.966278 
M154.514481,442.435486 
	C154.378677,442.955994 154.242859,443.476532 154.107040,443.997040 
	C154.369766,444.039215 154.632492,444.081390 154.895218,444.123566 
	C154.925812,443.528137 154.956406,442.932739 154.514481,442.435486 
M209.525986,435.504974 
	C209.525986,435.504974 209.494217,435.479645 209.525986,435.504974 
z"/>
<path fill="#E7C88D" opacity="1.000000" stroke="none" 
	d="
M190.964844,239.980682 
	C185.954391,228.209824 181.275635,216.281387 175.790405,204.736099 
	C173.137634,199.152557 169.342087,193.982376 165.388779,189.180969 
	C161.014618,183.868408 161.337448,179.626755 168.103455,178.224548 
	C179.453430,175.872375 191.054153,174.700745 202.570801,173.196350 
	C207.351105,172.571899 212.251724,172.729706 216.978638,171.874237 
	C221.750397,171.010651 224.088486,172.224442 223.497665,178.190552 
	C219.242111,178.449112 214.670090,178.552872 210.139160,179.039307 
	C201.409927,179.976501 192.715866,181.252426 183.979752,182.106796 
	C181.829468,182.317093 179.573441,181.446060 176.574387,180.938019 
	C175.887161,183.249969 177.810272,184.699966 180.125977,185.275925 
	C185.591003,186.635162 191.132797,188.529312 196.668701,188.616928 
	C223.449707,189.040848 250.240967,189.140579 277.024078,188.883743 
	C283.768768,188.819092 290.455292,186.896347 296.099060,182.725693 
	C296.130371,182.195328 296.161713,181.664963 296.193054,181.134598 
	C292.653656,180.740036 289.122711,180.131836 285.573273,179.991333 
	C275.285095,179.584045 264.989471,179.364594 254.696793,179.071442 
	C254.436813,178.269440 254.176834,177.467453 253.916840,176.665466 
	C256.142761,175.274277 258.324982,172.764618 260.601807,172.675598 
	C274.143005,172.146194 287.517975,173.491776 300.350739,178.275101 
	C301.748047,178.795944 303.382355,179.241974 304.337524,180.257889 
	C305.813232,181.827408 307.688446,183.849823 307.707367,185.697418 
	C307.722412,187.165909 305.436401,189.021149 303.769012,190.054199 
	C301.556030,191.425278 298.951019,192.163589 295.576447,193.562714 
	C300.604065,195.034912 301.180450,197.970703 300.154572,201.696060 
	C299.246368,204.993958 298.509827,208.339096 298.679901,211.996750 
	C299.752441,209.323273 300.742493,206.612976 301.915100,203.984131 
	C304.217255,198.823013 307.305664,197.347229 312.716156,198.668854 
	C322.937469,201.165588 328.848877,211.751038 325.235657,222.028336 
	C323.893921,225.844666 321.870392,230.015915 318.898956,232.548050 
	C311.373108,238.961212 303.134155,244.537460 294.797577,250.985275 
	C293.627441,252.017288 292.840485,252.512939 291.696472,252.981964 
	C288.545135,255.996201 285.750885,259.037079 282.952271,262.007874 
	C282.947906,261.937836 283.087158,261.920074 282.751038,262.064270 
	C282.259308,262.670929 282.103699,263.133362 281.931885,263.544769 
	C281.915680,263.493713 282.014709,263.452820 281.645020,263.527435 
	C279.503998,264.796204 277.860443,266.678101 275.933777,267.036041 
	C272.337067,267.704224 271.355957,269.755890 270.561829,272.925049 
	C269.356201,277.736481 267.132965,281.732788 261.099548,282.110199 
	C249.211929,282.853760 237.353958,284.570404 225.470428,284.704102 
	C217.617783,284.792480 209.514557,283.550812 203.118286,277.589722 
	C204.418793,275.856323 205.685959,274.447510 207.093384,273.378662 
	C208.988052,274.695435 210.695557,276.411682 212.504608,276.526367 
	C222.594330,277.166046 232.707001,277.482086 242.816116,277.741882 
	C244.578873,277.787170 246.362061,277.036957 248.473175,276.581360 
	C234.230515,274.973267 220.633499,273.438049 207.169586,271.596558 
	C208.231583,270.380798 209.160477,269.471313 210.477142,268.731445 
	C216.810257,270.249084 222.733902,270.869507 228.610443,267.758392 
	C222.840546,267.358276 217.070663,266.958160 211.183853,266.263428 
	C211.371048,265.301880 211.675156,264.635010 212.437683,264.049011 
	C217.189072,263.908051 221.482025,263.686157 225.774979,263.464264 
	C225.764084,262.941742 225.753204,262.419220 225.742325,261.896698 
	C221.174149,261.567017 216.605957,261.237366 212.038757,260.575134 
	C212.059601,259.581879 212.079483,258.921143 212.547653,258.234589 
	C217.272629,257.855927 221.549316,257.503052 225.825989,257.150177 
	C225.805191,256.613281 225.784378,256.076385 225.763565,255.539490 
	C221.201889,255.323456 216.640228,255.107437 212.124268,254.579376 
	C212.087830,253.855957 212.005692,253.444550 211.981079,252.827789 
	C212.038574,252.622437 212.049011,252.196045 212.492065,252.142670 
	C216.669434,251.711319 220.403778,251.333344 224.138107,250.955383 
	C224.101013,250.332153 224.063934,249.708923 224.026840,249.085693 
	C219.687454,249.085693 215.348083,249.085693 210.846207,248.773254 
	C207.196548,245.189758 211.085266,244.259109 213.224258,242.699417 
	C205.353287,241.738068 198.159073,240.859375 190.964844,239.980682 
M310.895447,208.101440 
	C305.256348,212.420731 297.935822,215.664764 294.338776,221.289856 
	C287.486450,232.005569 282.760071,244.080750 277.151031,255.591492 
	C279.121094,255.326996 280.161102,254.234543 281.331085,253.305832 
	C284.943359,250.438416 288.238464,246.828537 292.322388,244.968002 
	C301.477875,240.797012 308.325562,233.877518 315.268311,227.101349 
	C317.591614,224.833847 319.215118,221.267578 319.901733,218.028564 
	C321.245911,211.687912 318.305450,208.519882 310.895447,208.101440 
M180.613937,188.105133 
	C176.505325,185.818314 172.396713,183.531509 168.294342,181.232788 
	C168.796616,187.409241 176.356079,195.721619 184.961166,196.116150 
	C198.732162,196.747543 212.454727,198.555084 226.226288,199.019241 
	C238.924011,199.447189 251.659271,198.761169 264.378021,198.565826 
	C264.379303,198.044052 264.380615,197.522278 264.381927,197.000504 
	C235.695007,196.647659 206.849442,198.468918 178.669083,190.907349 
	C182.555725,190.907349 186.442368,190.907349 190.329010,190.907349 
	C190.342743,190.754852 190.356491,190.602341 190.370239,190.449844 
	C187.358841,189.776489 184.347427,189.103149 180.613937,188.105133 
M209.664597,203.655304 
	C210.626968,203.570419 211.589355,203.485535 212.551727,203.400650 
	C212.552414,202.931381 212.553085,202.462112 212.553772,201.992859 
	C202.902405,201.031418 193.251053,200.069992 183.599686,199.108551 
	C183.483749,199.919418 183.367813,200.730286 183.251877,201.541153 
	C191.578766,203.587814 200.277618,203.230667 209.664597,203.655304 
M208.070694,220.654846 
	C209.886627,220.443192 211.702560,220.231537 213.518478,220.019867 
	C213.490646,219.677612 213.462814,219.335342 213.434982,218.993073 
	C204.757034,218.308640 196.079102,217.624207 187.401154,216.939774 
	C187.215561,217.423630 187.029984,217.907486 186.844391,218.391342 
	C188.146255,219.016495 189.420502,220.106232 190.754807,220.185486 
	C196.214142,220.509796 201.691788,220.525696 208.070694,220.654846 
M211.869614,224.956848 
	C204.554901,224.370346 197.240189,223.783844 189.215179,223.140396 
	C191.982620,226.879410 206.442169,228.106888 214.446716,226.018906 
	C213.675705,225.623184 213.116760,225.336334 211.869614,224.956848 
M187.910156,211.097366 
	C187.258835,211.377258 186.607513,211.657150 185.956192,211.937027 
	C186.795868,212.585159 187.624741,213.779068 188.476898,213.795929 
	C195.942566,213.943741 203.412399,213.881439 210.880997,213.881439 
	C210.893692,213.537231 210.906403,213.193039 210.919098,212.848831 
	C203.544800,212.294693 196.170486,211.740540 187.910156,211.097366 
M204.252640,209.021957 
	C206.026474,209.021957 207.800308,209.021957 209.574158,209.021957 
	C209.562027,208.593216 209.549896,208.164490 209.537781,207.735748 
	C201.080536,206.824188 192.623291,205.912628 184.166046,205.001053 
	C184.050613,205.656204 183.935165,206.311340 183.819733,206.966492 
	C189.866547,210.003296 196.744583,208.692780 204.252640,209.021957 
M204.769608,235.764328 
	C201.873428,235.764328 198.977234,235.764328 195.270782,235.764328 
	C196.178696,237.103653 196.714111,238.620178 197.294739,238.637695 
	C203.148315,238.814240 209.009293,238.745209 214.868210,238.745209 
	C214.872650,238.106888 214.877106,237.468567 214.881561,236.830261 
	C211.808090,236.495697 208.734604,236.161133 204.769608,235.764328 
M210.660660,232.819458 
	C211.578964,232.404861 212.497269,231.990265 214.752243,230.972183 
	C206.561981,230.458710 199.840546,230.037323 193.119110,229.615936 
	C193.049774,230.331314 192.980438,231.046692 192.911102,231.762070 
	C198.381180,233.321091 204.127518,232.879196 210.660660,232.819458 
z"/>
<path fill="#E4C68C" opacity="1.000000" stroke="none" 
	d="
M284.984528,154.073059 
	C289.351166,152.778000 293.963440,152.005066 298.037537,150.088211 
	C309.451630,144.717911 320.868988,139.271118 331.818390,133.035187 
	C336.576599,130.325302 340.268463,125.687042 344.275208,121.752098 
	C345.311127,120.734741 345.707397,119.066040 345.611969,117.072998 
	C344.207916,117.802132 342.672089,118.354324 341.419617,119.287018 
	C323.332397,132.756088 302.143982,137.377289 280.535400,141.112686 
	C270.909821,142.776627 261.327393,145.048172 251.981186,147.886307 
	C237.984116,152.136765 229.105988,172.083527 235.600235,184.210052 
	C235.806793,184.595764 235.724045,185.136429 235.778320,185.624359 
	C230.220978,185.351028 226.522614,182.039673 226.076385,175.964966 
	C225.212173,164.199951 228.484344,153.726242 238.060974,146.261642 
	C249.461227,137.375565 263.106018,133.490067 276.872406,130.050491 
	C290.237701,126.711128 303.862946,124.105591 316.838348,119.626091 
	C324.807678,116.874855 332.301392,111.895988 339.053497,106.680725 
	C347.792267,99.930954 348.825500,85.357964 342.303894,76.512871 
	C349.658905,75.975784 357.597290,84.826248 356.338867,93.177803 
	C355.536194,98.504799 353.102417,103.586029 351.218628,109.393539 
	C351.117767,110.269516 351.198273,110.529411 351.278809,110.789291 
	C351.589111,110.596588 351.899445,110.403885 352.209778,110.211182 
	C353.961884,107.153175 355.713989,104.095161 357.653198,100.710564 
	C361.947327,106.986984 360.469696,113.478104 358.447021,119.736496 
	C355.137451,129.976852 347.419067,136.480804 338.496643,141.755508 
	C336.007385,143.227097 333.431610,144.552429 329.729492,146.585068 
	C331.707489,146.862152 332.346008,147.165390 332.771576,146.979980 
	C343.576447,142.272339 353.374359,136.171677 360.476685,126.471107 
	C366.635712,118.058960 370.447021,106.818459 360.486176,96.662117 
	C360.044525,96.211784 359.814728,95.553650 359.458099,94.944199 
	C377.897369,92.630722 389.321289,106.186394 382.619568,122.476349 
	C378.982239,131.317764 373.120880,138.411057 364.527740,143.023834 
	C353.970947,148.690720 342.510468,151.288010 330.802368,153.015823 
	C326.380859,153.668335 321.918549,154.044586 317.350159,153.556137 
	C321.574158,151.791901 325.798157,150.027664 330.022156,148.263428 
	C329.919189,147.982758 329.816223,147.702087 329.713257,147.421432 
	C311.924683,152.198212 294.136078,156.974991 276.347504,161.751755 
	C276.183014,161.348343 276.018524,160.944931 275.854034,160.541519 
	C276.327332,159.952530 276.800598,159.363525 277.401611,158.384338 
	C277.529358,157.994156 277.497620,158.069504 277.901367,158.043152 
	C278.889801,157.336609 279.474426,156.656418 280.017944,155.971008 
	C279.976868,155.965805 279.961823,156.047272 280.262695,156.377014 
	C281.065002,156.132645 281.566406,155.558517 282.024719,154.967651 
	C281.981628,154.950928 281.942657,155.034805 282.184937,155.395996 
	C283.301422,155.181000 284.175629,154.604797 285.018707,154.017944 
	C284.987549,154.007309 284.984528,154.073059 284.984528,154.073059 
z"/>
<path fill="#D9D4C2" opacity="1.000000" stroke="none" 
	d="
M292.053558,253.008575 
	C292.840485,252.512939 293.627441,252.017288 294.599854,251.291534 
	C301.047058,251.702057 307.395325,251.897354 313.549103,253.093430 
	C321.674194,254.672684 329.711517,256.816040 337.659698,259.149170 
	C342.144897,260.465790 345.905121,263.445679 346.325806,268.449524 
	C346.770264,273.736267 342.869049,276.955200 338.560150,278.317688 
	C325.454041,282.461945 312.242065,286.344025 298.910217,289.685577 
	C276.885162,295.206055 254.277161,296.328217 231.720032,296.936005 
	C220.140656,297.247955 208.516220,295.887024 196.550720,295.642944 
	C196.189285,296.003784 196.238861,295.910004 196.238861,295.910004 
	C185.303497,293.637299 174.305054,291.626862 163.451004,289.016083 
	C153.156647,286.539948 143.010529,283.445770 132.808975,280.588562 
	C131.862610,280.323486 130.963089,279.852631 130.082138,279.399048 
	C125.791245,277.189850 120.930389,275.225983 120.958099,269.381927 
	C120.986244,263.450165 125.485771,260.988068 130.758301,259.271790 
	C131.491531,260.844727 131.722626,262.170776 131.643036,263.683411 
	C128.324005,268.989288 128.908951,271.499298 133.964355,274.062103 
	C135.819016,275.002289 137.896271,275.503479 139.921234,276.175171 
	C139.970459,276.145447 139.911682,276.046600 140.064606,276.324768 
	C140.830673,276.733307 141.443787,276.863647 142.315979,277.240295 
	C150.078857,281.305145 157.860123,283.437103 166.597900,281.315491 
	C167.232162,281.191528 167.596741,281.145966 168.147797,281.412659 
	C173.822357,282.985809 179.310440,284.246735 185.069260,285.636414 
	C185.929596,285.738586 186.519211,285.712006 187.533264,285.760345 
	C201.893768,286.840088 215.828308,288.650238 229.766174,288.676422 
	C256.096039,288.725891 282.286499,286.152557 308.100098,280.807404 
	C316.832092,278.999298 325.493317,276.438110 333.830261,273.279755 
	C339.284119,271.213593 339.145905,266.094452 333.373901,262.603851 
	C337.035706,266.843414 333.974640,268.370636 331.345734,269.822021 
	C319.304443,276.469788 306.212769,279.211884 292.618256,279.995605 
	C291.393341,280.066223 290.167755,280.124878 288.768402,280.198212 
	C289.268982,279.318756 289.616974,278.707397 290.415833,277.303894 
	C285.256897,277.303894 280.625580,277.303894 275.994263,277.303894 
	C275.990509,276.715912 275.986725,276.127899 275.982971,275.539917 
	C282.764465,275.227631 289.545959,274.915314 296.327484,274.603027 
	C296.351959,274.178711 296.376434,273.754395 296.400909,273.330078 
	C291.697784,272.474579 286.994690,271.619049 281.296448,270.582550 
	C290.611115,265.465698 299.669434,270.952881 308.270447,267.808716 
	C299.518524,266.356750 290.766632,264.904785 282.014709,263.452820 
	C282.014709,263.452820 281.915680,263.493713 282.166260,263.289734 
	C282.640289,262.697205 282.863708,262.308624 283.087158,261.920074 
	C283.087158,261.920074 282.947906,261.937836 283.372223,262.044434 
	C294.595459,262.668945 305.394379,263.186890 316.193298,263.704834 
	C316.269684,263.276794 316.346069,262.848785 316.422455,262.420776 
	C309.850311,261.365662 303.309479,259.935089 296.695312,259.383148 
	C292.038116,258.994537 290.160217,257.655914 292.053558,253.008575 
z"/>
<path fill="#7D4B2F" opacity="1.000000" stroke="none" 
	d="
M167.961319,281.100433 
	C167.596741,281.145966 167.232162,281.191528 166.295319,281.011047 
	C165.113724,280.551514 164.510483,280.132233 163.894119,280.112000 
	C151.300812,279.698181 143.557648,272.291168 138.229630,261.863129 
	C135.998184,257.495758 134.724976,252.638779 133.016113,248.004410 
	C133.515198,242.065079 138.349503,240.172867 142.256714,236.860352 
	C146.780930,233.024765 150.402313,233.342697 154.833801,235.538315 
	C156.761627,236.493484 158.640747,237.591354 160.405716,238.820160 
	C162.855484,240.525726 165.497147,242.125061 167.471237,244.300995 
	C169.865616,246.940201 171.679626,246.585968 174.705627,245.205978 
	C179.622055,242.963913 184.984772,241.700455 190.561981,240.002319 
	C198.159073,240.859375 205.353287,241.738068 213.224258,242.699417 
	C211.085266,244.259109 207.196548,245.189758 210.898224,249.099503 
	C211.424850,250.557480 211.736938,251.376755 212.049011,252.196045 
	C212.049011,252.196045 212.038574,252.622437 211.743439,253.081985 
	C209.677429,261.057007 204.970001,266.479919 198.635040,271.061829 
	C184.861069,276.597290 171.885345,277.240540 159.465851,267.844788 
	C159.994339,269.656158 160.636429,271.475739 161.702271,272.998840 
	C163.656708,275.791687 165.861130,278.409576 167.961319,281.100433 
M158.052002,262.625305 
	C158.308273,263.181976 158.564529,263.738617 158.820801,264.295288 
	C159.213257,263.529785 159.605713,262.764282 160.098602,261.322876 
	C160.231705,260.360474 160.842300,258.962585 160.423584,258.503510 
	C156.526871,254.231522 152.453201,250.120972 148.430832,245.963608 
	C148.032135,246.330826 147.633423,246.698044 147.234726,247.065262 
	C150.840668,252.036453 154.446625,257.007660 158.052002,262.625305 
M176.596848,264.485352 
	C186.925720,266.241791 196.896774,262.021576 201.719864,253.862564 
	C203.771179,250.392456 203.777222,247.332886 199.510300,245.007172 
	C199.510300,245.007172 199.020813,245.023209 198.632492,244.394867 
	C189.677750,238.093018 170.788086,245.642548 169.315521,256.346375 
	C169.075653,258.089935 171.084305,260.142853 172.027023,262.699219 
	C171.960571,267.383423 174.380096,264.372620 176.596848,264.485352 
z"/>
<path fill="#D7BB84" opacity="1.000000" stroke="none" 
	d="
M337.984009,372.954407 
	C340.449158,361.492981 342.745453,349.990723 345.500793,338.599487 
	C346.171509,335.826660 348.049286,333.174835 349.896179,330.891266 
	C354.422211,325.295135 359.496613,325.754547 363.397552,332.353699 
	C358.174713,344.203033 352.818237,355.548370 347.267883,366.798035 
	C345.740875,369.893036 346.171875,372.150482 349.067749,374.408936 
	C354.200745,379.517395 359.850677,379.279175 360.824829,374.087189 
	C362.761932,363.762787 364.376099,353.377838 366.086792,343.020935 
	C366.049927,343.023956 366.082947,343.090210 366.422058,342.952698 
	C367.039917,341.886108 367.318665,340.957001 367.819397,339.935425 
	C368.142029,339.382874 368.242615,338.922791 368.343201,338.462708 
	C369.850769,335.910980 371.070770,333.124695 372.922852,330.853973 
	C377.456299,325.295837 382.502899,325.763947 386.397736,332.353882 
	C381.450623,343.765717 376.564758,354.777191 371.010681,365.440582 
	C368.796417,369.691803 369.096832,372.491669 372.794952,375.175903 
	C378.209381,380.107330 381.534180,379.387726 384.021820,372.746002 
	C386.045135,367.344025 392.523041,366.146027 396.692627,370.911011 
	C394.043152,372.933624 391.493011,374.429596 388.136017,376.398895 
	C388.132263,377.926208 389.197235,379.756714 392.531769,379.030457 
	C395.055298,378.480804 397.526245,377.689789 400.141174,377.242645 
	C396.213867,378.972961 392.166016,380.466827 388.118134,381.960663 
	C387.934204,381.951233 387.750305,381.941833 387.166565,381.584778 
	C385.709595,380.107758 384.652496,378.978302 383.594116,377.847473 
	C382.270813,379.097931 381.165802,380.142151 379.814240,381.166199 
	C379.067108,381.566650 378.566467,381.987335 378.065857,382.407990 
	C377.620850,382.420319 377.175812,382.432678 376.291443,382.094269 
	C374.906097,381.212219 373.960175,380.680908 373.286652,380.302612 
	C374.749481,385.707397 376.667389,390.986298 377.526733,396.432220 
	C378.569153,403.038422 375.472412,407.205444 369.908783,408.137543 
	C362.525604,402.571716 361.485168,394.394043 360.824402,385.216125 
	C360.830231,382.577820 360.830231,380.785828 360.830231,379.056366 
	C358.177826,379.961700 355.620209,380.834656 352.793945,381.566498 
	C352.132355,381.374542 351.739471,381.323669 351.144165,381.175964 
	C350.867554,381.477325 350.793304,381.875488 350.837830,382.625610 
	C352.178436,387.378143 353.831970,391.712372 354.521271,396.194824 
	C355.561981,402.962799 352.528412,407.269989 346.908905,408.147064 
	C339.819122,402.834015 338.602814,395.014923 337.912903,386.099976 
	C337.828003,382.026733 337.710083,378.838837 337.687927,375.206299 
	C337.850464,374.159241 337.917236,373.556824 337.984009,372.954407 
M349.603790,358.127411 
	C352.885986,350.087769 356.168152,342.048157 359.731567,333.410889 
	C358.903137,331.941437 358.074738,330.471985 357.246307,329.002533 
	C355.807068,329.981140 353.848969,330.638031 353.011017,331.989471 
	C346.580872,342.359589 344.927002,354.107178 343.100342,365.784149 
	C343.535156,365.992889 343.970001,366.201660 344.404816,366.410400 
	C345.942596,363.802948 347.480347,361.195465 349.603790,358.127411 
M382.731567,333.410889 
	C381.903137,331.941437 381.074738,330.471985 380.246307,329.002533 
	C378.807068,329.981140 376.849030,330.638062 376.011047,331.989471 
	C369.580872,342.359619 367.927002,354.107178 366.100342,365.784149 
	C366.535156,365.992889 366.970001,366.201660 367.404816,366.410400 
	C368.942596,363.802948 370.480347,361.195465 372.603760,358.127411 
	C375.885956,350.087769 379.168152,342.048126 382.731567,333.410889 
M373.764587,402.874939 
	C374.360168,394.041046 371.321991,386.166962 367.299683,378.519196 
	C366.235504,387.022430 366.822144,395.326660 370.131409,403.291626 
	C370.871674,405.073303 372.059113,406.334198 373.764587,402.874939 
M347.295563,384.317657 
	C346.424011,382.405762 345.552490,380.493866 344.680939,378.581970 
	C343.740265,388.077698 343.344055,397.216858 349.254608,406.447083 
	C352.743866,398.011902 349.221558,391.602844 347.295563,384.317657 
z"/>
<path fill="#D4B882" opacity="1.000000" stroke="none" 
	d="
M114.941139,373.068787 
	C119.374626,372.701630 123.808632,372.340485 128.241043,371.960724 
	C128.889709,371.905090 129.911102,371.982788 130.119873,371.625122 
	C135.609650,362.220306 135.856140,373.942017 139.158463,374.063721 
	C140.533630,374.114410 141.802032,377.061096 143.570648,378.831146 
	C144.843765,379.636536 145.665222,380.301697 146.230652,381.237213 
	C146.301056,381.780457 146.627502,382.053345 146.629761,381.991730 
	C145.105530,382.758789 143.905502,383.860352 142.446198,384.996796 
	C141.784607,385.364655 141.382278,385.697662 140.979950,386.030640 
	C135.684479,385.965729 135.225479,382.475525 135.401520,377.649689 
	C133.052155,375.926697 130.875534,374.145508 128.714859,374.164642 
	C123.971863,374.206604 119.230385,375.111908 114.501244,375.759369 
	C111.807907,376.128143 110.293694,377.306854 109.958984,380.496155 
	C108.927689,390.323059 107.517479,400.113647 106.053627,409.888275 
	C105.815109,411.480865 104.556686,412.920715 103.769669,414.431183 
	C103.408585,413.073181 102.648537,411.684357 102.750641,410.362122 
	C103.458443,401.196381 104.345551,392.044464 105.310913,382.167236 
	C105.297775,380.115173 105.148819,378.784027 104.978035,377.257721 
	C100.620476,378.060028 96.935173,378.723328 93.259155,379.434601 
	C92.795433,379.524323 92.380440,379.865875 91.942871,380.090759 
	C91.319466,380.020996 90.696075,379.951202 90.072678,379.881439 
	C89.969460,379.406464 89.866234,378.931519 89.763008,378.456573 
	C93.518921,377.458130 97.223938,376.085876 101.044960,375.565643 
	C104.923294,375.037598 106.203033,373.504883 106.146629,369.531128 
	C106.005211,359.568665 106.347122,349.598053 106.568504,339.632324 
	C106.662720,335.390808 104.875145,334.178070 100.708641,334.943787 
	C95.484108,335.903992 90.230034,336.359467 85.471352,332.702026 
	C82.845215,330.683594 82.611595,328.923798 84.646271,326.548981 
	C89.693626,320.657898 103.270874,317.268585 108.364311,325.431122 
	C109.109673,326.625610 112.084892,327.328156 113.703590,326.931854 
	C124.009941,324.408661 134.210678,321.457062 144.488037,318.808960 
	C145.840195,318.460571 147.430801,319.037567 148.406342,319.543396 
	C137.562988,322.837585 127.303856,326.114746 116.850044,328.559448 
	C112.029106,329.686890 110.490089,331.705841 111.303337,336.357422 
	C113.259407,347.545654 111.824226,358.707611 110.657913,369.845154 
	C110.255569,373.687286 112.406136,373.472961 114.941139,373.068787 
M102.802307,326.275879 
	C96.156479,321.285004 91.097473,322.170197 86.282631,329.826385 
	C88.828186,330.110870 91.001976,330.353821 93.945137,330.575592 
	C96.721245,330.219543 99.519463,329.969391 102.250839,329.399139 
	C102.686554,329.308197 102.822456,327.781158 102.802307,326.275879 
z"/>
<path fill="#D3B782" opacity="1.000000" stroke="none" 
	d="
M337.619995,372.996643 
	C337.917236,373.556824 337.850464,374.159241 337.402740,375.140900 
	C334.973328,378.043274 332.924866,380.566437 330.957397,382.989807 
	C328.865234,381.914856 327.695251,381.313721 326.526581,380.713226 
	C313.688904,404.954987 301.755341,409.746155 286.796722,409.315735 
	C278.460083,406.082825 273.349182,399.681091 270.063690,391.732483 
	C268.634186,388.274048 267.961517,384.502777 267.009430,380.098145 
	C266.821869,377.911072 266.570007,376.499420 266.318115,375.087769 
	C265.687958,353.302887 271.486542,333.677429 286.896820,317.820862 
	C290.525330,314.087280 295.792999,311.439026 300.794128,309.669525 
	C307.783020,307.196747 315.500153,310.958954 318.932678,317.440704 
	C319.539642,318.586853 319.420898,320.117279 319.637299,321.470276 
	C318.976715,321.896027 318.316162,322.321777 317.655609,322.747528 
	C316.009064,320.537964 314.362518,318.328400 312.246338,315.712616 
	C307.298462,310.919342 301.889801,309.636993 297.073547,312.863525 
	C292.772888,315.744598 288.378479,319.056244 285.342773,323.153870 
	C273.640625,338.949646 268.562897,356.910126 270.641937,376.500793 
	C271.215271,381.903046 273.738983,387.098358 275.367798,392.388611 
	C280.323914,407.503571 299.588654,411.643738 311.024323,398.339691 
	C317.296051,391.043274 323.091858,383.460693 325.730347,373.881958 
	C326.246521,372.008209 328.273163,369.978302 330.110260,369.162720 
	C333.658875,367.587311 335.304932,370.890045 337.619995,372.996643 
z"/>
<path fill="#DEC088" opacity="1.000000" stroke="none" 
	d="
M277.497620,158.069519 
	C277.497620,158.069504 277.529358,157.994156 277.564392,158.014771 
	C276.605682,157.949661 275.365784,157.437149 274.657257,157.845825 
	C269.064026,161.072113 263.573395,164.476135 258.048767,167.821503 
	C252.917496,170.928696 250.409775,175.420731 251.037964,181.573563 
	C250.557724,181.623016 250.077484,181.672470 249.597229,181.721909 
	C249.233093,179.611755 248.287491,177.410141 248.602524,175.406799 
	C250.222321,165.106171 256.952759,158.419724 265.840210,154.317490 
	C274.224152,150.447678 283.132385,147.659805 291.925568,144.744644 
	C302.090027,141.374893 312.380829,138.386322 322.616791,135.232239 
	C322.807526,135.654663 322.998260,136.077072 323.188995,136.499481 
	C310.312225,142.120300 297.435455,147.741119 284.771606,153.717499 
	C284.984528,154.073059 284.987549,154.007309 284.819214,153.617188 
	C283.748108,153.829636 282.845398,154.432220 281.942657,155.034805 
	C281.942657,155.034805 281.981628,154.950928 281.680847,154.792664 
	C280.907288,155.105362 280.434570,155.576324 279.961823,156.047272 
	C279.961823,156.047272 279.976868,155.965805 279.545349,155.845108 
	C278.575073,156.506104 278.036346,157.287811 277.497620,158.069519 
z"/>
<path fill="#61553C" opacity="1.000000" stroke="none" 
	d="
M275.471130,391.983673 
	C273.738983,387.098358 271.215271,381.903046 270.641937,376.500793 
	C268.562897,356.910126 273.640625,338.949646 285.342773,323.153870 
	C288.378479,319.056244 292.772888,315.744598 297.073547,312.863525 
	C301.889801,309.636993 307.298462,310.919342 311.908447,315.632629 
	C302.061340,313.274414 295.402435,318.714447 290.016754,325.752716 
	C275.007690,345.367218 270.256653,367.413574 275.471130,391.983673 
z"/>
<path fill="#B79F70" opacity="1.000000" stroke="none" 
	d="
M265.967896,375.322296 
	C266.570007,376.499420 266.821869,377.911072 267.022644,379.692261 
	C266.521454,380.064240 265.749817,379.915833 265.667694,380.090912 
	C262.724121,386.366028 258.512543,385.083710 254.075943,381.859070 
	C251.902863,388.681549 251.279221,388.899536 244.534210,385.191284 
	C241.306717,388.882477 238.093613,387.853607 235.258118,384.437317 
	C240.192429,384.329559 240.181793,381.129791 240.332947,378.054565 
	C242.069977,378.249969 243.548004,378.249969 244.573639,378.249969 
	C243.451721,374.320160 242.690933,371.655273 241.930130,368.990417 
	C246.486633,365.386932 248.583160,368.574188 250.445908,372.508057 
	C251.351181,371.958618 252.073685,371.645752 252.642487,371.154785 
	C256.724274,367.631195 259.011505,367.840942 262.384033,372.017792 
	C263.386017,373.258759 264.535675,374.380463 265.967896,375.322296 
M256.517853,371.275421 
	C256.274628,373.933716 256.031403,376.592041 255.788177,379.250336 
	C259.755646,375.291260 259.769653,373.955536 256.517853,371.275421 
z"/>
<path fill="#61553C" opacity="1.000000" stroke="none" 
	d="
M114.799011,372.611755 
	C112.406136,373.472961 110.255569,373.687286 110.657913,369.845154 
	C111.824226,358.707611 113.259407,347.545654 111.303337,336.357422 
	C110.490089,331.705841 112.029106,329.686890 116.850044,328.559448 
	C127.303856,326.114746 137.562988,322.837585 148.275452,319.934509 
	C149.972183,320.825989 151.295197,321.683777 153.910599,323.379547 
	C141.749313,326.797089 131.170425,330.057281 120.430847,332.652435 
	C115.866882,333.755249 114.093262,334.861938 114.514130,340.309418 
	C115.329651,350.865204 114.692207,361.533203 114.799011,372.611755 
z"/>
<path fill="#CFB37F" opacity="1.000000" stroke="none" 
	d="
M196.190399,295.954163 
	C199.221893,296.528473 202.240021,297.620575 205.284683,297.700439 
	C225.512939,298.231171 245.746750,298.551331 265.979065,298.922638 
	C268.781403,298.974060 271.585541,298.929779 274.943634,298.929779 
	C262.912750,305.025452 199.106354,303.301117 181.405548,295.693481 
	C186.136124,296.028625 190.866684,296.363739 195.918060,296.304443 
	C196.238861,295.910004 196.189285,296.003784 196.190399,295.954163 
z"/>
<path fill="#C1A876" opacity="1.000000" stroke="none" 
	d="
M198.035538,371.917114 
	C200.163544,368.392334 202.076889,365.742004 205.177750,371.408295 
	C206.601959,374.010834 209.279388,375.927521 212.101669,378.908478 
	C214.020462,373.515533 214.750031,366.827637 222.237228,367.805725 
	C224.182343,368.059814 225.886276,370.160126 227.822113,372.022949 
	C225.131241,374.056335 222.319229,375.479187 219.230530,377.042023 
	C219.589127,380.275085 221.678024,380.260803 224.391449,379.183563 
	C226.649658,378.287048 228.949997,377.496582 231.231674,376.659119 
	C231.344666,376.962097 231.457672,377.265045 231.570663,377.567993 
	C228.019516,379.774841 224.468369,381.981689 220.917221,384.188538 
	C218.472687,384.052795 215.992310,383.599670 213.593719,383.870605 
	C211.196732,384.141418 208.244019,386.320038 206.705078,385.490723 
	C205.077911,384.613953 204.831314,381.175171 204.027252,378.073059 
	C202.727905,373.387543 200.562973,375.129486 198.335632,376.025757 
	C198.155594,374.356903 198.095566,373.136993 198.035538,371.917114 
z"/>
<path fill="#61553C" opacity="1.000000" stroke="none" 
	d="
M286.883789,409.660278 
	C301.755341,409.746155 313.688904,404.954987 326.526581,380.713226 
	C327.695251,381.313721 328.865234,381.914856 330.957397,382.989807 
	C332.924866,380.566437 334.973328,378.043274 337.306946,375.585541 
	C337.710083,378.838837 337.828003,382.026733 337.879700,385.669189 
	C335.399017,385.674774 332.984589,385.225800 331.407104,384.932434 
	C325.477356,391.883881 320.039429,398.973785 313.850403,405.332642 
	C306.161255,413.232819 294.903656,414.842407 286.883789,409.660278 
z"/>
<path fill="#D3B782" opacity="1.000000" stroke="none" 
	d="
M388.307190,382.228668 
	C392.166016,380.466827 396.213867,378.972961 400.187836,377.070862 
	C400.113922,376.662598 400.027435,376.317230 400.027466,376.317230 
	C401.026398,374.901093 402.182159,373.569061 402.995148,372.053192 
	C405.525482,367.334900 411.033234,366.404327 415.328003,370.713745 
	C412.550262,372.901550 409.774872,374.443909 406.642548,376.184631 
	C407.337097,378.943665 409.452728,380.750916 413.432831,379.031677 
	C415.342255,378.206848 417.142334,377.128967 418.991943,376.165710 
	C420.850342,376.592255 422.708740,377.018799 424.912476,377.149567 
	C425.257843,376.853790 425.294769,376.786255 425.294769,376.786255 
	C424.328278,377.885254 423.361816,378.984222 422.395325,380.083221 
	C423.032043,380.354980 423.668762,380.626740 424.679077,380.485748 
	C425.052673,380.072998 425.098724,380.070160 425.098724,380.070160 
	C422.062866,381.334656 419.122894,383.087280 415.960663,383.708496 
	C413.450745,384.201569 410.166534,384.115082 408.125610,382.842896 
	C405.090973,380.951324 402.786346,381.005920 399.995758,382.735779 
	C396.149750,385.119934 392.272583,385.293182 388.307190,382.228668 
z"/>
<path fill="#65583E" opacity="1.000000" stroke="none" 
	d="
M103.868225,414.751221 
	C104.556686,412.920715 105.815109,411.480865 106.053627,409.888275 
	C107.517479,400.113647 108.927689,390.323059 109.958984,380.496155 
	C110.293694,377.306854 111.807907,376.128143 114.501244,375.759369 
	C119.230385,375.111908 123.971863,374.206604 128.714859,374.164642 
	C130.875534,374.145508 133.052155,375.926697 135.260437,377.256958 
	C129.719879,378.287170 124.153717,379.278137 118.556526,379.505554 
	C114.596748,379.666443 113.536819,381.577850 113.172501,384.970123 
	C112.148949,394.500549 110.986160,404.016266 109.826691,413.531525 
	C109.655167,414.939209 109.204147,416.312866 108.660103,418.662476 
	C106.646065,417.121368 105.306427,416.096283 103.868225,414.751221 
z"/>
<path fill="#6A3E26" opacity="1.000000" stroke="none" 
	d="
M132.753799,248.273743 
	C134.724976,252.638779 135.998184,257.495758 138.229630,261.863129 
	C143.557648,272.291168 151.300812,279.698181 163.894119,280.112000 
	C164.510483,280.132233 165.113724,280.551514 166.025635,281.089417 
	C157.860123,283.437103 150.078857,281.305145 142.150421,276.969910 
	C141.121109,276.317719 140.516388,276.182159 139.911682,276.046600 
	C139.911682,276.046600 139.970459,276.145447 140.023041,275.816772 
	C138.968506,274.075623 137.764465,272.727386 136.775925,271.236267 
	C135.097031,268.703857 133.553909,266.081390 131.953735,263.496796 
	C131.722626,262.170776 131.491531,260.844727 131.113327,259.211700 
	C131.474655,255.450821 131.983063,251.996948 132.753799,248.273743 
z"/>
<path fill="#5C5038" opacity="1.000000" stroke="none" 
	d="
M372.749268,374.788605 
	C369.096832,372.491669 368.796417,369.691803 371.010681,365.440582 
	C376.564758,354.777191 381.450623,343.765717 386.685547,332.558014 
	C387.555298,334.620850 389.647552,337.556702 388.917053,339.329346 
	C384.761261,349.413818 379.938599,359.223846 375.324646,369.118774 
	C374.494171,370.899750 373.579437,372.641449 372.749268,374.788605 
z"/>
<path fill="#5C5038" opacity="1.000000" stroke="none" 
	d="
M348.898346,374.097443 
	C346.171875,372.150482 345.740875,369.893036 347.267883,366.798035 
	C352.818237,355.548370 358.174713,344.203033 363.685303,332.557861 
	C365.039154,334.220123 366.312012,336.218231 367.964050,338.339539 
	C368.242615,338.922791 368.142029,339.382874 367.421265,340.004608 
	C366.561707,341.140900 366.322327,342.115570 366.082947,343.090210 
	C366.082947,343.090210 366.049927,343.023956 365.754761,343.159546 
	C359.939148,353.562592 354.418732,363.830017 348.898346,374.097443 
z"/>
<path fill="#695B40" opacity="1.000000" stroke="none" 
	d="
M198.455673,376.474701 
	C200.562973,375.129486 202.727905,373.387543 204.027313,377.655884 
	C203.502228,378.606293 202.814392,379.117279 202.575439,379.788147 
	C200.309372,386.150391 198.874329,386.724915 192.065842,383.126343 
	C191.179825,390.326508 190.329788,397.234161 189.358444,405.127777 
	C187.602966,403.560913 186.460266,402.541016 185.356018,400.884521 
	C186.671890,392.420563 187.864792,384.577698 189.293976,376.778168 
	C189.601074,375.102203 190.490158,373.325989 191.646286,372.101044 
	C192.211807,371.501862 194.005844,372.062195 195.243835,372.097717 
	C195.017441,373.195129 195.148392,374.642120 194.489120,375.316101 
	C193.177597,376.656860 191.431305,377.572296 188.913071,379.326172 
	C191.162735,380.419037 193.070984,381.921906 193.646072,381.519501 
	C195.512238,380.213715 196.889908,378.209808 198.455673,376.474701 
z"/>
<path fill="#DEC088" opacity="1.000000" stroke="none" 
	d="
M198.335632,376.025757 
	C196.889908,378.209808 195.512238,380.213715 193.646072,381.519501 
	C193.070984,381.921906 191.162735,380.419037 188.913071,379.326172 
	C191.431305,377.572296 193.177597,376.656860 194.489120,375.316101 
	C195.148392,374.642120 195.017441,373.195129 195.243835,372.097717 
	C194.005844,372.062195 192.211807,371.501862 191.646286,372.101044 
	C190.490158,373.325989 189.601074,375.102203 189.293976,376.778168 
	C187.864792,384.577698 186.671890,392.420563 185.199036,400.593628 
	C184.604050,397.313995 184.204498,393.688690 183.925232,389.157227 
	C183.999863,385.143616 183.954208,382.036133 183.909882,378.479889 
	C183.715179,375.944946 183.519165,373.858765 183.323151,371.772614 
	C183.677429,370.740723 184.031708,369.708801 184.573074,368.131927 
	C185.904816,369.528748 186.854263,370.524567 187.997971,371.724152 
	C191.177872,369.523071 194.424149,367.016418 197.915405,371.575134 
	C198.095566,373.136993 198.155594,374.356903 198.335632,376.025757 
z"/>
<path fill="#D7BB84" opacity="1.000000" stroke="none" 
	d="
M146.486694,380.966858 
	C145.665222,380.301697 144.843765,379.636536 144.011765,378.772064 
	C144.406738,376.998260 144.813919,375.424194 145.217484,373.849182 
	C146.785660,367.728821 153.225372,365.872101 158.100983,370.818237 
	C155.326172,372.942413 152.560043,374.381012 149.296539,376.078278 
	C149.704422,378.731079 151.238937,380.872650 155.390167,379.065613 
	C157.608719,378.099884 159.796463,377.063416 161.998108,376.058838 
	C162.422867,375.904877 162.847626,375.750916 163.595734,376.051086 
	C158.781219,380.621704 153.427536,383.894958 146.486694,380.966858 
z"/>
<path fill="#65583E" opacity="1.000000" stroke="none" 
	d="
M370.050781,408.449402 
	C375.472412,407.205444 378.569153,403.038422 377.526733,396.432220 
	C376.667389,390.986298 374.749481,385.707397 373.286652,380.302612 
	C373.960175,380.680908 374.906097,381.212219 375.969727,382.002563 
	C376.681732,384.288483 377.420868,386.285797 377.842102,388.348022 
	C378.921204,393.630859 380.344208,398.916901 380.626190,404.254700 
	C380.747437,406.550323 378.919373,409.921600 376.969940,411.024994 
	C375.582458,411.810272 372.512085,409.622284 370.050781,408.449402 
z"/>
<path fill="#61553C" opacity="1.000000" stroke="none" 
	d="
M347.050110,408.459473 
	C352.528412,407.269989 355.561981,402.962799 354.521271,396.194824 
	C353.831970,391.712372 352.178436,387.378143 351.020386,382.391479 
	C351.171631,381.627869 351.259094,381.450317 351.346558,381.272797 
	C351.739471,381.323669 352.132355,381.374542 352.767273,381.785217 
	C353.009247,382.145050 352.936340,382.577850 352.936340,382.577850 
	C354.086273,385.851227 355.553467,389.053955 356.302582,392.416626 
	C357.160034,396.265594 357.930267,400.292664 357.676697,404.172943 
	C357.515930,406.632690 355.960815,409.905151 354.004089,411.035797 
	C352.628479,411.830597 349.523895,409.633148 347.050110,408.459473 
z"/>
<path fill="#413928" opacity="1.000000" stroke="none" 
	d="
M221.057083,384.537140 
	C224.468369,381.981689 228.019516,379.774841 231.570663,377.567993 
	C231.457672,377.265045 231.344666,376.962097 231.231674,376.659119 
	C228.949997,377.496582 226.649658,378.287048 224.391449,379.183563 
	C221.678024,380.260803 219.589127,380.275085 219.230530,377.042023 
	C222.319229,375.479187 225.131241,374.056335 228.053864,372.276581 
	C229.500320,372.892365 230.836182,373.865051 232.551849,375.290466 
	C233.050964,378.396637 233.170242,381.050049 233.289536,383.703491 
	C229.323135,384.756897 225.553253,387.820404 221.057083,384.537140 
z"/>
<path fill="#CCC8B6" opacity="1.000000" stroke="none" 
	d="
M300.704712,434.950043 
	C301.313141,431.982361 303.248657,432.718964 303.605469,434.535278 
	C304.383850,438.497437 304.393402,442.626556 304.472076,446.692230 
	C304.483185,447.267456 302.647827,448.500305 302.466980,448.364380 
	C299.648010,446.246002 295.817963,444.446503 294.568817,441.558136 
	C293.350494,438.741028 294.531952,434.587402 299.048035,434.794006 
	C298.434540,437.825989 298.102722,440.243225 297.770935,442.660492 
	C298.488770,442.758514 299.206635,442.856537 299.924469,442.954559 
	C300.184570,440.286377 300.444641,437.618195 300.704712,434.950043 
z"/>
<path fill="#5C5038" opacity="1.000000" stroke="none" 
	d="
M146.230652,381.237213 
	C153.427536,383.894958 158.781219,380.621704 163.921875,376.146301 
	C163.924683,375.787354 163.975327,375.884216 164.350067,375.919312 
	C164.924484,376.722198 165.288284,377.489319 165.291443,378.257874 
	C165.299255,380.154694 165.141663,382.052185 165.050537,383.949402 
	C159.885361,384.789520 154.636475,388.335419 149.916763,383.184326 
	C144.047287,389.479034 143.613510,389.644165 141.048141,386.375854 
	C141.382278,385.697662 141.784607,385.364655 142.766663,385.123718 
	C144.548920,384.252625 145.751434,383.289429 146.953949,382.326233 
	C146.627502,382.053345 146.301056,381.780457 146.230652,381.237213 
z"/>
<path fill="#D7BB84" opacity="1.000000" stroke="none" 
	d="
M165.304352,384.056030 
	C165.141663,382.052185 165.299255,380.154694 165.291443,378.257874 
	C165.288284,377.489319 164.924484,376.722198 164.302887,375.946960 
	C163.841736,374.906860 163.680420,373.860870 163.791504,372.844666 
	C163.963516,371.271210 164.321457,369.718018 164.600555,368.156250 
	C166.407669,368.579224 168.214783,369.002167 169.853333,369.793427 
	C168.934402,370.043610 168.184036,369.925537 166.335907,369.634674 
	C168.542862,373.172241 170.328812,376.034943 172.073822,379.283875 
	C172.311798,383.345276 169.748413,384.328552 166.923889,385.064545 
	C166.468658,384.763916 166.013412,384.463287 165.304352,384.056030 
z"/>
<path fill="#D3B782" opacity="1.000000" stroke="none" 
	d="
M233.517212,383.794739 
	C233.170242,381.050049 233.050964,378.396637 232.868011,375.333923 
	C231.308731,368.089233 232.460907,366.787384 238.561127,369.037109 
	C237.630081,369.651306 236.634262,369.721619 235.176636,369.824585 
	C236.880295,372.619629 238.477112,375.239410 240.073929,377.859192 
	C240.181793,381.129791 240.192429,384.329559 235.091980,384.154053 
	C234.334641,384.168671 234.026901,384.065704 233.517212,383.794739 
z"/>
<path fill="#8D7B56" opacity="1.000000" stroke="none" 
	d="
M167.057175,385.366760 
	C169.748413,384.328552 172.311798,383.345276 172.310211,379.387848 
	C173.018356,379.364075 173.449188,379.622528 173.878265,380.291687 
	C173.963654,383.924103 176.125183,384.533142 178.596497,383.995758 
	C182.048981,383.245026 181.227768,380.463623 181.249832,378.150757 
	C182.341354,378.478119 183.124954,378.703400 183.908539,378.928680 
	C183.954208,382.036133 183.999863,385.143616 183.945404,388.709290 
	C181.301163,388.068604 178.757034,386.969666 175.872345,385.723633 
	C173.167786,388.878448 170.156006,388.674896 167.057175,385.366760 
z"/>
<path fill="#BAB6A6" opacity="1.000000" stroke="none" 
	d="
M346.091827,441.952881 
	C347.284912,442.587646 348.171478,442.995544 349.132172,443.437561 
	C347.300140,446.370850 345.101593,447.032898 342.527771,444.746460 
	C339.971069,442.475281 340.265137,437.352356 342.976379,434.281281 
	C344.857300,432.150848 345.821442,432.228790 350.688385,435.998596 
	C349.014160,436.944611 347.365173,437.567169 346.176788,438.681091 
	C345.600861,439.220825 345.888550,440.681976 346.091827,441.952881 
z"/>
<path fill="#CCC8B6" opacity="1.000000" stroke="none" 
	d="
M282.948395,427.983246 
	C284.033722,427.997467 284.675079,428.029785 284.977753,428.045013 
	C284.977753,431.747131 285.083740,435.308960 284.946442,438.861389 
	C284.821503,442.095123 286.610352,445.989105 281.108612,449.152100 
	C281.108612,441.484528 281.108612,434.968140 281.108612,428.113586 
	C280.932831,428.127716 281.718597,428.064514 282.948395,427.983246 
z"/>
<path fill="#E7C88D" opacity="1.000000" stroke="none" 
	d="
M180.941895,378.048737 
	C181.227768,380.463623 182.048981,383.245026 178.596497,383.995758 
	C176.125183,384.533142 173.963654,383.924103 174.052887,379.988770 
	C174.480133,377.859589 175.124176,376.373199 174.884933,375.045990 
	C174.568008,373.287964 173.560501,371.654419 172.849777,369.967377 
	C174.823303,369.395050 176.796829,368.822693 178.748856,368.933960 
	C178.477448,371.153961 177.740036,372.822723 178.111450,374.190369 
	C178.501541,375.626770 179.953796,376.774719 180.941895,378.048737 
z"/>
<path fill="#CCC8B6" opacity="1.000000" stroke="none" 
	d="
M166.477814,436.380524 
	C168.034653,434.808716 169.384476,433.558868 171.038269,432.027557 
	C173.189789,436.417908 165.076004,441.081909 173.180420,443.148529 
	C170.943344,446.728577 167.740845,446.844360 166.437759,443.359314 
	C165.703018,441.394318 166.283035,438.937653 166.477814,436.380524 
z"/>
<path fill="#D9D4C2" opacity="1.000000" stroke="none" 
	d="
M149.042938,438.870972 
	C149.042618,435.078400 149.042618,431.761200 149.042618,427.336884 
	C150.856323,428.685364 153.306976,429.992157 153.154358,430.473419 
	C151.565781,435.483215 155.704758,441.722015 149.043243,447.096527 
	C149.043243,443.681427 149.043243,441.513885 149.042938,438.870972 
z"/>
<path fill="#D9D4C2" opacity="1.000000" stroke="none" 
	d="
M204.204071,444.994873 
	C200.729248,441.915039 201.224350,438.507690 203.071274,435.378204 
	C203.859894,434.041962 205.890594,433.438751 207.648453,433.049438 
	C203.757309,438.821655 204.519211,442.344238 210.033524,442.944183 
	C209.171539,446.253723 207.259140,446.682678 204.204071,444.994873 
z"/>
<path fill="#65583E" opacity="1.000000" stroke="none" 
	d="
M161.930435,375.714630 
	C159.796463,377.063416 157.608719,378.099884 155.390167,379.065613 
	C151.238937,380.872650 149.704422,378.731079 149.296539,376.078278 
	C152.560043,374.381012 155.326172,372.942413 158.219757,371.144897 
	C159.519058,372.314087 160.690903,373.842255 161.930435,375.714630 
z"/>
<path fill="#BAB6A6" opacity="1.000000" stroke="none" 
	d="
M228.735138,445.464844 
	C227.649384,443.373840 226.085373,441.328339 226.400406,439.631805 
	C226.682892,438.110657 229.033020,436.973511 230.470963,435.666931 
	C230.844360,437.052887 231.201630,438.443512 231.600983,439.821960 
	C231.720520,440.234528 231.932449,440.627197 232.144913,441.004852 
	C234.067093,444.421448 233.331161,445.541412 228.735138,445.464844 
z"/>
<path fill="#D9D4C2" opacity="1.000000" stroke="none" 
	d="
M330.016113,439.325592 
	C330.016022,442.391327 330.016022,445.011566 330.016022,447.800201 
	C325.183197,444.472595 324.725647,440.802277 327.651550,428.170410 
	C331.031616,431.607758 330.215851,435.324219 330.016113,439.325592 
z"/>
<path fill="#65583E" opacity="1.000000" stroke="none" 
	d="
M418.949951,375.813477 
	C417.142334,377.128967 415.342255,378.206848 413.432831,379.031677 
	C409.452728,380.750916 407.337097,378.943665 406.642548,376.184631 
	C409.774872,374.443909 412.550262,372.901550 415.527435,371.009705 
	C416.788757,372.260590 417.848358,373.860870 418.949951,375.813477 
z"/>
<path fill="#5C5038" opacity="1.000000" stroke="none" 
	d="
M91.977936,380.452515 
	C92.380440,379.865875 92.795433,379.524323 93.259155,379.434601 
	C96.935173,378.723328 100.620476,378.060028 104.978035,377.257721 
	C105.148819,378.784027 105.297775,380.115173 105.270813,381.720398 
	C103.019180,382.350281 100.837547,382.416626 98.892052,383.128418 
	C95.819626,384.252472 93.671196,383.474762 91.977936,380.452515 
z"/>
<path fill="#CCC8B6" opacity="1.000000" stroke="none" 
	d="
M182.952866,443.143707 
	C182.586548,438.620605 182.263702,434.537445 181.922775,430.225494 
	C186.477631,431.960022 187.793945,441.725311 184.279205,448.171753 
	C183.734055,446.222046 183.365189,444.902863 182.952866,443.143707 
z"/>
<path fill="#695B40" opacity="1.000000" stroke="none" 
	d="
M399.997009,375.942413 
	C400.027435,376.317230 400.113922,376.662598 400.067261,376.834412 
	C397.526245,377.689789 395.055298,378.480804 392.531769,379.030457 
	C389.197235,379.756714 388.132263,377.926208 388.136017,376.398895 
	C391.493011,374.429596 394.043152,372.933624 396.862762,371.211975 
	C398.076996,372.513367 399.021790,374.040497 399.997009,375.942413 
z"/>
<path fill="#CCC8B6" opacity="1.000000" stroke="none" 
	d="
M243.295380,444.755585 
	C243.986526,443.703674 245.057755,442.728668 245.289352,441.583740 
	C245.766541,439.225037 245.795334,436.775635 246.058380,433.800568 
	C249.616379,437.896362 250.109100,445.388397 247.515549,449.230682 
	C246.081680,448.099915 244.653534,446.973694 243.108444,445.447693 
	C242.991516,445.047974 243.295380,444.755585 243.295380,444.755585 
z"/>
<path fill="#CCC8B6" opacity="1.000000" stroke="none" 
	d="
M257.547180,439.509033 
	C254.505432,435.134430 254.730362,434.563629 258.431488,434.185394 
	C259.139740,435.768494 259.746185,436.942993 260.197266,438.174377 
	C260.888214,440.060516 261.472046,441.985809 262.101318,443.894501 
	C260.281036,444.253632 258.460754,444.612762 257.159943,444.869385 
	C257.475372,442.396667 257.645264,441.064941 257.547180,439.509033 
z"/>
<path fill="#CCC8B6" opacity="1.000000" stroke="none" 
	d="
M318.479797,441.905701 
	C317.308105,446.252319 315.065704,446.033081 312.014038,443.763550 
	C313.030121,442.914734 313.905945,442.183044 314.828064,441.412689 
	C309.948120,435.986877 309.924408,435.392944 313.540436,434.314178 
	C315.311401,436.907318 316.902069,439.236481 318.479797,441.905701 
z"/>
<path fill="#272218" opacity="1.000000" stroke="none" 
	d="
M240.332947,378.054565 
	C238.477112,375.239410 236.880295,372.619629 235.176636,369.824585 
	C236.634262,369.721619 237.630081,369.651306 238.761475,369.298798 
	C239.745773,369.083801 240.594498,369.151001 241.686676,369.104309 
	C242.690933,371.655273 243.451721,374.320160 244.573639,378.249969 
	C243.548004,378.249969 242.069977,378.249969 240.332947,378.054565 
z"/>
<path fill="#272218" opacity="1.000000" stroke="none" 
	d="
M172.539108,369.962463 
	C173.560501,371.654419 174.568008,373.287964 174.884933,375.045990 
	C175.124176,376.373199 174.480133,377.859589 174.054611,379.578064 
	C173.449188,379.622528 173.018356,379.364075 172.351135,379.001648 
	C170.328812,376.034943 168.542862,373.172241 166.335907,369.634674 
	C168.184036,369.925537 168.934402,370.043610 170.030777,370.099792 
	C170.994003,370.011078 171.611221,369.984314 172.539108,369.962463 
z"/>
<path fill="#413928" opacity="1.000000" stroke="none" 
	d="
M181.249832,378.150757 
	C179.953796,376.774719 178.501541,375.626770 178.111450,374.190369 
	C177.740036,372.822723 178.477448,371.153961 178.910156,369.292206 
	C180.330505,369.836975 181.568054,370.707123 183.064362,371.674927 
	C183.519165,373.858765 183.715179,375.944946 183.909866,378.479889 
	C183.124954,378.703400 182.341354,378.478119 181.249832,378.150757 
z"/>
<path fill="#BAB6A6" opacity="1.000000" stroke="none" 
	d="
M193.470032,432.851013 
	C194.182098,436.728851 195.034210,440.827515 196.125000,446.074280 
	C191.393005,442.779541 191.025162,438.935181 193.470032,432.851013 
z"/>
<path fill="#BAB6A6" opacity="1.000000" stroke="none" 
	d="
M241.996216,445.017822 
	C237.682175,442.070068 239.560120,438.272125 240.223022,434.641022 
	C240.718521,434.556824 241.214035,434.472626 241.709534,434.388428 
	C242.129410,437.312317 242.549271,440.236176 242.767487,443.701416 
	C242.306992,444.450409 242.117111,444.708771 241.996216,445.017822 
z"/>
<path fill="#CCC8B6" opacity="1.000000" stroke="none" 
	d="
M216.764786,440.616516 
	C216.848618,438.449982 216.932541,436.667786 217.016464,434.885590 
	C217.623962,434.813446 218.231461,434.741272 218.838959,434.669128 
	C219.300003,438.083801 219.761047,441.498505 220.222092,444.913208 
	C219.629669,445.115784 219.037262,445.318329 218.444855,445.520905 
	C217.884872,444.014221 217.324875,442.507507 216.764786,440.616516 
z"/>
<path fill="#413928" opacity="1.000000" stroke="none" 
	d="
M380.060730,381.186340 
	C381.165802,380.142151 382.270813,379.097931 383.594116,377.847473 
	C384.652496,378.978302 385.709595,380.107758 386.893311,381.544128 
	C384.891602,382.867371 382.763275,383.883667 380.273438,384.445740 
	C379.961517,383.056427 380.011108,382.121368 380.060730,381.186340 
z"/>
<path fill="#695B40" opacity="1.000000" stroke="none" 
	d="
M353.231445,382.823608 
	C352.936340,382.577850 353.009247,382.145050 353.035950,381.926331 
	C355.620209,380.834656 358.177826,379.961700 360.830231,379.056366 
	C360.830231,380.785828 360.830231,382.577820 360.770996,384.784912 
	C358.316681,384.489838 355.921600,383.779602 353.231445,382.823608 
z"/>
<path fill="#272218" opacity="1.000000" stroke="none" 
	d="
M300.504120,434.866272 
	C300.444641,437.618195 300.184570,440.286377 299.924469,442.954559 
	C299.206635,442.856537 298.488770,442.758514 297.770935,442.660492 
	C298.102722,440.243225 298.434540,437.825989 299.124268,435.176147 
	C299.724335,434.728577 299.998108,434.674896 300.504120,434.866272 
z"/>
<path fill="#0D0D0B" opacity="1.000000" stroke="none" 
	d="
M155.879883,434.173004 
	C157.990326,430.287354 158.220352,432.962372 159.280960,435.605103 
	C157.719833,435.031555 156.896027,434.728882 155.879883,434.173004 
z"/>
<path fill="#0D0D0B" opacity="1.000000" stroke="none" 
	d="
M156.531815,438.746887 
	C157.324036,438.888336 157.913437,439.249176 158.502838,439.610016 
	C158.115738,439.982147 157.728638,440.354248 157.341537,440.726349 
	C157.004028,440.139648 156.666519,439.552979 156.531815,438.746887 
z"/>
<path fill="#65583E" opacity="1.000000" stroke="none" 
	d="
M379.814209,381.166168 
	C380.011108,382.121368 379.961517,383.056427 379.886047,384.337219 
	C379.213348,384.147369 378.566498,383.611816 377.992737,382.742126 
	C378.566467,381.987335 379.067108,381.566650 379.814209,381.166168 
z"/>
<path fill="#0D0D0B" opacity="1.000000" stroke="none" 
	d="
M154.750732,442.386414 
	C154.956406,442.932739 154.925812,443.528137 154.895218,444.123566 
	C154.632492,444.081390 154.369766,444.039215 154.107040,443.997040 
	C154.242859,443.476532 154.378677,442.955994 154.750732,442.386414 
z"/>
<path fill="#D3B782" opacity="1.000000" stroke="none" 
	d="
M426.004059,378.999756 
	C426.242249,378.961578 426.480469,378.923431 426.718689,378.885284 
	C426.692230,378.749908 426.665771,378.614563 426.639282,378.479187 
	C426.394745,378.537598 426.150177,378.596039 425.968018,378.823059 
	C426.030365,378.991608 426.004059,378.999756 426.004059,378.999756 
z"/>
<path fill="#D9D4C2" opacity="1.000000" stroke="none" 
	d="
M209.510101,435.492310 
	C209.494217,435.479645 209.525986,435.504974 209.510101,435.492310 
z"/>
<path fill="#D3B782" opacity="1.000000" stroke="none" 
	d="
M425.232544,376.882751 
	C425.207214,376.911743 425.112732,376.812622 425.112732,376.812622 
	C425.112732,376.812622 425.156647,376.999542 425.225708,376.892883 
	C425.294769,376.786255 425.257843,376.853790 425.232544,376.882751 
z"/>
<path fill="#D3B782" opacity="1.000000" stroke="none" 
	d="
M425.039978,380.084656 
	C425.447723,379.969543 425.868164,379.842743 426.146362,379.357849 
	C426.004059,378.999756 426.030365,378.991608 426.027222,379.006409 
	C425.594727,379.132568 425.165344,379.243958 424.917358,379.712769 
	C425.098724,380.070160 425.052673,380.072998 425.039978,380.084656 
z"/>
<path fill="#CCC8B6" opacity="1.000000" stroke="none" 
	d="
M242.140289,445.163788 
	C242.117111,444.708771 242.306992,444.450409 242.776855,444.122864 
	C242.987854,444.002991 243.270020,444.326813 243.282700,444.541199 
	C243.295380,444.755585 242.991516,445.047974 242.842224,445.196899 
	C242.692947,445.345795 242.284348,445.309753 242.140289,445.163788 
z"/>
<path fill="#0D0D0B" opacity="1.000000" stroke="none" 
	d="
M281.645020,263.527466 
	C290.766632,264.904785 299.518524,266.356750 308.270447,267.808716 
	C299.669434,270.952881 290.611115,265.465698 281.296448,270.582550 
	C286.994690,271.619049 291.697784,272.474579 296.400909,273.330078 
	C296.376434,273.754395 296.351959,274.178711 296.327484,274.603027 
	C289.545959,274.915314 282.764465,275.227631 275.982971,275.539917 
	C275.986725,276.127899 275.990509,276.715912 275.994263,277.303894 
	C280.625580,277.303894 285.256897,277.303894 290.415833,277.303894 
	C289.616974,278.707397 289.268982,279.318756 288.768402,280.198212 
	C290.167755,280.124878 291.393341,280.066223 292.618256,279.995605 
	C306.212769,279.211884 319.304443,276.469788 331.345734,269.822021 
	C333.974640,268.370636 337.035706,266.843414 333.373901,262.603851 
	C339.145905,266.094452 339.284119,271.213593 333.830261,273.279755 
	C325.493317,276.438110 316.832092,278.999298 308.100098,280.807404 
	C282.286499,286.152557 256.096039,288.725891 229.766174,288.676422 
	C215.828308,288.650238 201.893768,286.840088 187.852188,285.637115 
	C192.859406,282.930695 197.972168,280.422485 203.084930,277.914276 
	C209.514557,283.550812 217.617783,284.792480 225.470428,284.704102 
	C237.353958,284.570404 249.211929,282.853760 261.099548,282.110199 
	C267.132965,281.732788 269.356201,277.736481 270.561829,272.925049 
	C271.355957,269.755890 272.337067,267.704224 275.933777,267.036041 
	C277.860443,266.678101 279.503998,264.796204 281.645020,263.527466 
z"/>
<path fill="#090806" opacity="1.000000" stroke="none" 
	d="
M311.293640,208.062531 
	C318.305450,208.519882 321.245911,211.687912 319.901733,218.028564 
	C319.215118,221.267578 317.591614,224.833847 315.268311,227.101349 
	C308.325562,233.877518 301.477875,240.797012 292.322388,244.968002 
	C288.238464,246.828537 284.943359,250.438416 281.331085,253.305832 
	C280.161102,254.234543 279.121094,255.326996 277.151031,255.591492 
	C282.760071,244.080750 287.486450,232.005569 294.338776,221.289856 
	C297.935822,215.664764 305.256348,212.420731 311.293640,208.062531 
M307.783997,217.139816 
	C300.370331,222.144577 294.012177,227.906677 292.638489,238.027588 
	C302.140076,235.233994 308.489105,229.272446 313.566254,221.880295 
	C314.572632,220.415054 314.094391,217.930145 314.300812,215.915451 
	C312.351074,216.219116 310.401306,216.522797 307.783997,217.139816 
z"/>
<path fill="#0D0D0B" opacity="1.000000" stroke="none" 
	d="
M180.974976,188.267471 
	C184.347427,189.103149 187.358841,189.776489 190.370239,190.449844 
	C190.356491,190.602341 190.342743,190.754852 190.329010,190.907349 
	C186.442368,190.907349 182.555725,190.907349 178.669083,190.907349 
	C206.849442,198.468918 235.695007,196.647659 264.381927,197.000504 
	C264.380615,197.522278 264.379303,198.044052 264.378021,198.565826 
	C251.659271,198.761169 238.924011,199.447189 226.226288,199.019241 
	C212.454727,198.555084 198.732162,196.747543 184.961166,196.116150 
	C176.356079,195.721619 168.796616,187.409241 168.291229,181.238739 
	C172.396713,183.531509 176.505325,185.818314 180.974976,188.267471 
z"/>
<path fill="#603A25" opacity="1.000000" stroke="none" 
	d="
M203.118286,277.589722 
	C197.972168,280.422485 192.859406,282.930695 187.427734,285.562164 
	C186.519211,285.712006 185.929596,285.738586 185.163940,285.270355 
	C187.207169,282.919312 189.567474,281.204773 191.610352,279.171326 
	C194.209198,276.584534 196.550949,273.739410 199.003555,271.005676 
	C204.970001,266.479919 209.677429,261.057007 211.685928,253.287354 
	C212.005692,253.444550 212.087830,253.855957 212.162994,254.998688 
	C212.137131,256.573486 212.118256,257.416931 212.099365,258.260406 
	C212.079483,258.921143 212.059601,259.581879 211.988525,260.956909 
	C211.951309,262.436829 211.965286,263.202484 211.979248,263.968109 
	C211.675156,264.635010 211.371048,265.301880 210.959625,266.472168 
	C210.598007,267.504272 210.343689,268.033051 210.089355,268.561798 
	C209.160477,269.471313 208.231583,270.380798 207.164230,271.881653 
	C207.001541,272.661591 206.977325,272.850159 206.953125,273.038696 
	C205.685959,274.447510 204.418793,275.856323 203.118286,277.589722 
z"/>
<path fill="#14120C" opacity="1.000000" stroke="none" 
	d="
M207.093384,273.378662 
	C206.977325,272.850159 207.001541,272.661591 207.031128,272.187927 
	C220.633499,273.438049 234.230515,274.973267 248.473175,276.581360 
	C246.362061,277.036957 244.578873,277.787170 242.816116,277.741882 
	C232.707001,277.482086 222.594330,277.166046 212.504608,276.526367 
	C210.695557,276.411682 208.988052,274.695435 207.093384,273.378662 
z"/>
<path fill="#14120C" opacity="1.000000" stroke="none" 
	d="
M291.696472,252.981964 
	C290.160217,257.655914 292.038116,258.994537 296.695312,259.383148 
	C303.309479,259.935089 309.850311,261.365662 316.422455,262.420776 
	C316.346069,262.848785 316.269684,263.276794 316.193298,263.704834 
	C305.394379,263.186890 294.595459,262.668945 283.376587,262.114502 
	C285.750885,259.037079 288.545135,255.996201 291.696472,252.981964 
z"/>
<path fill="#272218" opacity="1.000000" stroke="none" 
	d="
M209.260056,203.655258 
	C200.277618,203.230667 191.578766,203.587814 183.251877,201.541153 
	C183.367813,200.730286 183.483749,199.919418 183.599686,199.108551 
	C193.251053,200.069992 202.902405,201.031418 212.553772,201.992859 
	C212.553085,202.462112 212.552414,202.931381 212.551727,203.400650 
	C211.589355,203.485535 210.626968,203.570419 209.260056,203.655258 
z"/>
<path fill="#272218" opacity="1.000000" stroke="none" 
	d="
M207.616699,220.654999 
	C201.691788,220.525696 196.214142,220.509796 190.754807,220.185486 
	C189.420502,220.106232 188.146255,219.016495 186.844391,218.391342 
	C187.029984,217.907486 187.215561,217.423630 187.401154,216.939774 
	C196.079102,217.624207 204.757034,218.308640 213.434982,218.993073 
	C213.462814,219.335342 213.490646,219.677612 213.518478,220.019867 
	C211.702560,220.231537 209.886627,220.443192 207.616699,220.654999 
z"/>
<path fill="#272218" opacity="1.000000" stroke="none" 
	d="
M212.213715,225.003159 
	C213.116760,225.336334 213.675705,225.623184 214.446716,226.018906 
	C206.442169,228.106888 191.982620,226.879410 189.215179,223.140396 
	C197.240189,223.783844 204.554901,224.370346 212.213715,225.003159 
z"/>
<path fill="#272218" opacity="1.000000" stroke="none" 
	d="
M188.353180,211.141876 
	C196.170486,211.740540 203.544800,212.294693 210.919098,212.848831 
	C210.906403,213.193039 210.893692,213.537231 210.880997,213.881439 
	C203.412399,213.881439 195.942566,213.943741 188.476898,213.795929 
	C187.624741,213.779068 186.795868,212.585159 185.956207,211.937042 
	C186.607513,211.657150 187.258835,211.377258 188.353180,211.141876 
z"/>
<path fill="#0D0D0B" opacity="1.000000" stroke="none" 
	d="
M203.780884,209.021957 
	C196.744583,208.692780 189.866547,210.003296 183.819733,206.966492 
	C183.935165,206.311340 184.050613,205.656204 184.166046,205.001053 
	C192.623291,205.912628 201.080536,206.824188 209.537781,207.735748 
	C209.549896,208.164490 209.562027,208.593216 209.574158,209.021957 
	C207.800308,209.021957 206.026474,209.021957 203.780884,209.021957 
z"/>
<path fill="#272218" opacity="1.000000" stroke="none" 
	d="
M205.215363,235.795456 
	C208.734604,236.161133 211.808090,236.495697 214.881561,236.830261 
	C214.877106,237.468567 214.872650,238.106888 214.868210,238.745209 
	C209.009293,238.745209 203.148315,238.814240 197.294739,238.637695 
	C196.714111,238.620178 196.178696,237.103653 195.270782,235.764328 
	C198.977234,235.764328 201.873428,235.764328 205.215363,235.795456 
z"/>
<path fill="#272218" opacity="1.000000" stroke="none" 
	d="
M210.234894,232.862823 
	C204.127518,232.879196 198.381180,233.321091 192.911102,231.762070 
	C192.980438,231.046692 193.049774,230.331314 193.119110,229.615936 
	C199.840546,230.037323 206.561981,230.458710 214.752243,230.972183 
	C212.497269,231.990265 211.578964,232.404861 210.234894,232.862823 
z"/>
<path fill="#14120C" opacity="1.000000" stroke="none" 
	d="
M210.477142,268.731445 
	C210.343689,268.033051 210.598007,267.504272 211.076538,266.766785 
	C217.070663,266.958160 222.840546,267.358276 228.610443,267.758392 
	C222.733902,270.869507 216.810257,270.249084 210.477142,268.731445 
z"/>
<path fill="#0D0D0B" opacity="1.000000" stroke="none" 
	d="
M212.547653,258.234589 
	C212.118256,257.416931 212.137131,256.573486 212.117279,255.310699 
	C216.640228,255.107437 221.201889,255.323456 225.763565,255.539490 
	C225.784378,256.076385 225.805191,256.613281 225.825989,257.150177 
	C221.549316,257.503052 217.272629,257.855927 212.547653,258.234589 
z"/>
<path fill="#272218" opacity="1.000000" stroke="none" 
	d="
M212.492065,252.142670 
	C211.736938,251.376755 211.424850,250.557480 211.060730,249.411957 
	C215.348083,249.085693 219.687454,249.085693 224.026840,249.085693 
	C224.063934,249.708923 224.101013,250.332153 224.138107,250.955383 
	C220.403778,251.333344 216.669434,251.711319 212.492065,252.142670 
z"/>
<path fill="#14120C" opacity="1.000000" stroke="none" 
	d="
M212.437683,264.049011 
	C211.965286,263.202484 211.951309,262.436829 211.987549,261.289429 
	C216.605957,261.237366 221.174149,261.567017 225.742325,261.896698 
	C225.753204,262.419220 225.764084,262.941742 225.774979,263.464264 
	C221.482025,263.686157 217.189072,263.908051 212.437683,264.049011 
z"/>
<path fill="#14120C" opacity="1.000000" stroke="none" 
	d="
M282.751038,262.064270 
	C282.863708,262.308624 282.640289,262.697205 282.182495,263.340790 
	C282.103699,263.133362 282.259308,262.670929 282.751038,262.064270 
z"/>
<path fill="#010100" opacity="1.000000" stroke="none" 
	d="
M282.184937,155.395996 
	C282.845398,154.432220 283.748108,153.829636 284.850342,153.627823 
	C284.175629,154.604797 283.301422,155.181000 282.184937,155.395996 
z"/>
<path fill="#010100" opacity="1.000000" stroke="none" 
	d="
M277.901367,158.043152 
	C278.036346,157.287811 278.575073,156.506104 279.586426,155.850311 
	C279.474426,156.656418 278.889801,157.336609 277.901367,158.043152 
z"/>
<path fill="#010100" opacity="1.000000" stroke="none" 
	d="
M280.262695,156.377014 
	C280.434570,155.576324 280.907288,155.105362 281.723938,154.809387 
	C281.566406,155.558517 281.065002,156.132645 280.262695,156.377014 
z"/>
<path fill="#010100" opacity="1.000000" stroke="none" 
	d="
M351.985291,110.022766 
	C351.899445,110.403885 351.589111,110.596588 351.278809,110.789291 
	C351.198273,110.529411 351.117767,110.269516 351.156433,109.757523 
	C351.437347,109.615059 351.599091,109.724709 351.985291,110.022766 
z"/>
<path fill="#6A3E26" opacity="1.000000" stroke="none" 
	d="
M198.635040,271.061829 
	C196.550949,273.739410 194.209198,276.584534 191.610352,279.171326 
	C189.567474,281.204773 187.207169,282.919312 184.893188,285.141602 
	C179.310440,284.246735 173.822357,282.985809 168.147797,281.412659 
	C165.861130,278.409576 163.656708,275.791687 161.702271,272.998840 
	C160.636429,271.475739 159.994339,269.656158 159.465851,267.844788 
	C171.885345,277.240540 184.861069,276.597290 198.635040,271.061829 
z"/>
<path fill="#0D0D0B" opacity="1.000000" stroke="none" 
	d="
M131.643036,263.683411 
	C133.553909,266.081390 135.097031,268.703857 136.775925,271.236267 
	C137.764465,272.727386 138.968506,274.075623 139.973816,275.846497 
	C137.896271,275.503479 135.819016,275.002289 133.964355,274.062103 
	C128.908951,271.499298 128.324005,268.989288 131.643036,263.683411 
z"/>
<path fill="#0D0D0B" opacity="1.000000" stroke="none" 
	d="
M140.064606,276.324768 
	C140.516388,276.182159 141.121109,276.317719 141.891357,276.723633 
	C141.443787,276.863647 140.830673,276.733307 140.064606,276.324768 
z"/>
<path fill="#88563A" opacity="1.000000" stroke="none" 
	d="
M172.053665,262.052765 
	C171.084305,260.142853 169.075653,258.089935 169.315521,256.346375 
	C170.788086,245.642548 189.677750,238.093018 198.659164,245.002747 
	C194.256363,248.084885 189.733398,250.408035 185.423004,253.074768 
	C180.861176,255.897095 176.501572,259.046295 172.053665,262.052765 
z"/>
<path fill="#88563A" opacity="1.000000" stroke="none" 
	d="
M200.000000,245.000610 
	C203.777222,247.332886 203.771179,250.392456 201.719864,253.862564 
	C196.896774,262.021576 186.925720,266.241791 176.454651,263.939758 
	C181.248520,260.532379 186.111176,257.532867 191.143265,254.851288 
	C195.354172,252.607361 200.182983,251.115158 200.000000,245.000610 
z"/>
<path fill="#6A3E26" opacity="1.000000" stroke="none" 
	d="
M199.755157,245.003891 
	C200.182983,251.115158 195.354172,252.607361 191.143265,254.851288 
	C186.111176,257.532867 181.248520,260.532379 176.134918,263.681580 
	C174.380096,264.372620 171.960571,267.383423 172.040344,262.375977 
	C176.501572,259.046295 180.861176,255.897095 185.423004,253.074768 
	C189.733398,250.408035 194.256363,248.084885 198.853333,245.316910 
	C199.020813,245.023209 199.510300,245.007172 199.755157,245.003891 
z"/>
<path fill="#603A25" opacity="1.000000" stroke="none" 
	d="
M158.052567,261.978851 
	C154.446625,257.007660 150.840668,252.036453 147.234726,247.065262 
	C147.633423,246.698044 148.032135,246.330826 148.430832,245.963608 
	C152.453201,250.120972 156.526871,254.231522 160.423584,258.503510 
	C160.842300,258.962585 160.231705,260.360474 159.723785,261.660828 
	C158.916840,261.992126 158.484711,261.985504 158.052567,261.978851 
z"/>
<path fill="#6A3E26" opacity="1.000000" stroke="none" 
	d="
M158.052277,262.302063 
	C158.484711,261.985504 158.916840,261.992126 159.673584,261.998779 
	C159.605713,262.764282 159.213257,263.529785 158.820801,264.295288 
	C158.564529,263.738617 158.308273,263.181976 158.052277,262.302063 
z"/>
<path fill="#090806" opacity="1.000000" stroke="none" 
	d="
M349.067749,374.408936 
	C354.418732,363.830017 359.939148,353.562592 365.791626,343.156525 
	C364.376099,353.377838 362.761932,363.762787 360.824829,374.087189 
	C359.850677,379.279175 354.200745,379.517395 349.067749,374.408936 
z"/>
<path fill="#695B40" opacity="1.000000" stroke="none" 
	d="
M372.018097,358.587982 
	C370.480347,361.195465 368.942596,363.802948 367.404816,366.410400 
	C366.970001,366.201660 366.535156,365.992889 366.100342,365.784149 
	C367.927002,354.107178 369.580872,342.359619 376.011047,331.989471 
	C376.849030,330.638062 378.807068,329.981140 380.246307,329.002533 
	C381.074738,330.471985 381.903137,331.941437 382.225586,333.786224 
	C374.843628,340.857147 373.027252,349.562256 372.018097,358.587982 
z"/>
<path fill="#695B40" opacity="1.000000" stroke="none" 
	d="
M349.018097,358.587982 
	C347.480347,361.195465 345.942596,363.802948 344.404816,366.410400 
	C343.970001,366.201660 343.535156,365.992889 343.100342,365.784149 
	C344.927002,354.107178 346.580872,342.359589 353.011017,331.989471 
	C353.848969,330.638031 355.807068,329.981140 357.246307,329.002533 
	C358.074738,330.471985 358.903137,331.941437 359.225586,333.786224 
	C351.843628,340.857147 350.027252,349.562256 349.018097,358.587982 
z"/>
<path fill="#272218" opacity="1.000000" stroke="none" 
	d="
M373.617615,403.263336 
	C372.059113,406.334198 370.871674,405.073303 370.131409,403.291626 
	C366.822144,395.326660 366.235504,387.022430 367.299683,378.519196 
	C371.321991,386.166962 374.360168,394.041046 373.617615,403.263336 
z"/>
<path fill="#272218" opacity="1.000000" stroke="none" 
	d="
M347.462463,384.671936 
	C349.221558,391.602844 352.743866,398.011902 349.254608,406.447083 
	C343.344055,397.216858 343.740265,388.077698 344.680939,378.581970 
	C345.552490,380.493866 346.424011,382.405762 347.462463,384.671936 
z"/>
<path fill="#0D0D0B" opacity="1.000000" stroke="none" 
	d="
M349.310944,358.357697 
	C350.027252,349.562256 351.843628,340.857147 359.084991,334.085022 
	C356.168152,342.048157 352.885986,350.087769 349.310944,358.357697 
z"/>
<path fill="#0D0D0B" opacity="1.000000" stroke="none" 
	d="
M372.310913,358.357697 
	C373.027252,349.562256 374.843628,340.857147 382.084961,334.085022 
	C379.168152,342.048126 375.885956,350.087769 372.310913,358.357697 
z"/>
<path fill="#090806" opacity="1.000000" stroke="none" 
	d="
M366.422058,342.952698 
	C366.322327,342.115570 366.561707,341.140900 367.199219,340.097107 
	C367.318665,340.957001 367.039917,341.886108 366.422058,342.952698 
z"/>
<path fill="#61553C" opacity="1.000000" stroke="none" 
	d="
M350.901611,382.039520 
	C350.793304,381.875488 350.867554,381.477325 351.144165,381.175964 
	C351.259094,381.450317 351.171631,381.627869 350.901611,382.039520 
z"/>
<path fill="#5C5038" opacity="1.000000" stroke="none" 
	d="
M93.175766,330.596802 
	C91.001976,330.353821 88.828186,330.110870 86.282631,329.826385 
	C91.097473,322.170197 96.156479,321.285004 102.524399,326.595886 
	C98.825310,327.163055 94.934349,326.252563 93.175766,330.596802 
z"/>
<path fill="#0D0D0B" opacity="1.000000" stroke="none" 
	d="
M93.560455,330.586182 
	C94.934349,326.252563 98.825310,327.163055 102.671722,326.916992 
	C102.822456,327.781158 102.686554,329.308197 102.250839,329.399139 
	C99.519463,329.969391 96.721245,330.219543 93.560455,330.586182 
z"/>
<path fill="#010100" opacity="1.000000" stroke="none" 
	d="
M146.629761,381.991730 
	C145.751434,383.289429 144.548920,384.252625 143.025940,385.088867 
	C143.905502,383.860352 145.105530,382.758789 146.629761,381.991730 
z"/>
<path fill="#695B40" opacity="1.000000" stroke="none" 
	d="
M256.759644,371.038818 
	C259.769653,373.955536 259.755646,375.291260 255.788177,379.250336 
	C256.031403,376.592041 256.274628,373.933716 256.759644,371.038818 
z"/>
<path fill="#E4C68C" opacity="1.000000" stroke="none" 
	d="
M308.117798,216.983154 
	C310.401306,216.522797 312.351074,216.219116 314.300812,215.915451 
	C314.094391,217.930145 314.572632,220.415054 313.566254,221.880295 
	C308.489105,229.272446 302.140076,235.233994 292.638489,238.027588 
	C294.012177,227.906677 300.370331,222.144577 308.117798,216.983154 
z"/>
</svg>